<svg viewBox="0 0 220 300"
     xmlns="http://www.w3.org/2000/svg"
     fill-rule="evenodd" clip-rule="evenodd" stroke-miterlimit="1.414">
    <path d="M110.828 3.527h-1.943V8.73h-6.27v4.068h6.27v9.525c-7.795 1.39-7.287 10.238-7.287 10.238l9.23-.507 9.23.508s.51-8.846-7.287-10.237v-9.525h6.272V8.73h-6.27V3.527h-1.944z"
          fill="#fefefe" fill-rule="nonzero"/>
    <path d="M110.828 3.527h-1.943V8.73h-6.27v4.068h6.27v9.525c-7.795 1.39-7.287 10.238-7.287 10.238l9.23-.507 9.23.508s.51-8.846-7.287-10.237v-9.525h6.272V8.73h-6.27V3.527h-1.944z"
          fill="none" stroke-width="1.2" stroke="#000"/>
    <path d="M29.605 39.586h8.745v11.13h6.382v-11.13h8.366v11.13h5.4v-11.13h8.688v11.13h5.717v-11.13h8.32v21.92L78.43 62.71H32.966l-3.36-1.204v-21.92z"
          fill="#fefefe" fill-rule="nonzero"/>
    <path d="M29.605 39.586h8.745v11.13h6.382v-11.13h8.366v11.13h5.4v-11.13h8.688v11.13h5.717v-11.13h8.32v21.92L78.43 62.71H32.966l-3.36-1.204v-21.92z"
          fill="none" stroke-width="1.2" stroke="#000"/>
    <path d="M192.05 39.586h-8.743v11.13h-6.383v-11.13h-8.365v11.13h-5.402v-11.13h-8.687v11.13h-5.716v-11.13h-8.32v21.92l2.793 1.205h45.464l3.36-1.204v-21.92z"
          fill="#fefefe" fill-rule="nonzero"/>
    <path d="M192.05 39.586h-8.743v11.13h-6.383v-11.13h-8.365v11.13h-5.402v-11.13h-8.687v11.13h-5.716v-11.13h-8.32v21.92l2.793 1.205h45.464l3.36-1.204v-21.92z"
          fill="none" stroke-width="1.2" stroke="#000"/>
    <path fill="#fefefe" fill-rule="nonzero" d="M32.966 62.704h45.4v96.43h-45.4z"/>
    <path fill="none" stroke-width="1.2" stroke="#000" d="M32.966 62.704h45.4v96.43h-45.4z"/>
    <path fill="#fefefe" fill-rule="nonzero" d="M143.29 62.704h45.4v96.43h-45.4z"/>
    <path fill="none" stroke-width="1.2" stroke="#000" d="M143.29 62.704h45.4v96.43h-45.4z"/>
    <path d="M68.172 26.52h-8.238l-4.12 7.134-4.12-7.135h-8.237l4.12-7.136-4.12-7.135h8.238l4.12-7.136 4.12 7.135h8.237l-4.12 7.134 4.12 7.135z"
          fill="#fefefe" fill-rule="nonzero"/>
    <path d="M68.172 26.52h-8.238l-4.12 7.134-4.12-7.135h-8.237l4.12-7.136-4.12-7.135h8.238l4.12-7.136 4.12 7.135h8.237l-4.12 7.134 4.12 7.135z"
          fill="none" stroke-width="1.2" stroke="#000"/>
    <path d="M153.484 26.52h8.24l4.118 7.134 4.12-7.135h8.238l-4.12-7.136 4.12-7.135h-8.238l-4.12-7.136-4.12 7.135h-8.238l4.12 7.134-4.12 7.135z"
          fill="#fefefe" fill-rule="nonzero"/>
    <path d="M153.484 26.52h8.24l4.118 7.134 4.12-7.135h8.238l-4.12-7.136 4.12-7.135h-8.238l-4.12-7.136-4.12 7.135h-8.238l4.12 7.134-4.12 7.135z"
          fill="none" stroke-width="1.2" stroke="#000"/>
    <path d="M110.828 30.524c-10.96 0-22.067 9.6-22.067 21.58h44.136c0-11.98-11.107-21.58-22.068-21.58z"
          fill="#fefefe" fill-rule="nonzero"/>
    <path d="M110.828 30.524c-10.96 0-22.067 9.6-22.067 21.58h44.136c0-11.98-11.107-21.58-22.068-21.58z"
          fill="none" stroke-width="1.2" stroke="#000"/>
    <path d="M110.828 52.105H85.465v9.747l2.5.852h45.726l2.5-.852v-9.747H110.83z" fill="#fefefe"
          fill-rule="nonzero"/>
    <path d="M110.828 52.105H85.465v9.747l2.5.852h45.726l2.5-.852v-9.747H110.83z" fill="none"
          stroke-width="1.2" stroke="#000"/>
    <path fill="#fefefe" fill-rule="nonzero" d="M88.403 62.704h44.85v95.113h-44.85z"/>
    <path fill="none" stroke-width="1.2" stroke="#000" d="M88.403 62.704h44.85v95.113h-44.85z"/>
    <path d="M110.828 142.638h-7.03v13.055H90.744v-13.055H76.4v13.055H64.443v-13.055H50.56v13.055H38.694v-13.055h-16.25v24.737l3.93.94h168.907l1.934-.94v-24.737h-14.25v13.055h-11.867v-13.055h-13.883v13.055h-11.958v-13.055h-14.343v13.055h-13.055v-13.055h-7.03z"
          fill="#fefefe" fill-rule="nonzero"/>
    <path d="M110.828 142.638h-7.03v13.055H90.744v-13.055H76.4v13.055H64.443v-13.055H50.56v13.055H38.694v-13.055h-16.25v24.737l3.93.94h168.907l1.934-.94v-24.737h-14.25v13.055h-11.867v-13.055h-13.883v13.055h-11.958v-13.055h-14.343v13.055h-13.055v-13.055h-7.03z"
          fill="none" stroke-width="1.2" stroke="#000"/>
    <path d="M2.57 282.65h214.52s-7.17-12.537-15.174-48.8c-7.37-33.397-4.7-66.475-4.7-66.475H22.443s2.672 33.078-4.7 66.475C9.74 270.113 2.57 282.65 2.57 282.65z"
          fill="#fefefe" fill-rule="nonzero"/>
    <path d="M2.57 282.65h214.52s-7.17-12.537-15.174-48.8c-7.37-33.397-4.7-66.475-4.7-66.475H22.443s2.672 33.078-4.7 66.475C9.74 270.113 2.57 282.65 2.57 282.65z"
          fill="none" stroke="#000"/>
    <path fill="#fefefe" fill-rule="nonzero" d="M2.57 282.65h214.52v14.592H2.57z"/>
    <path fill="none" stroke="#000" d="M2.57 282.65h214.52v14.592H2.57z"/>
    <path d="M3.17 282.65h213.32" fill="none" stroke-width="2" stroke="#000"/>
    <path d="M33.665 63.213h44.037M144.185 63.213h44.037M89.03 63.213h43.438" fill="none"
          stroke-width="2" stroke-linecap="square" stroke="#000"/>
    <path d="M75.72 181.732l70.217-.906V296.81H75.72V181.733z" fill="#fefefe"
          fill-rule="nonzero"/>
    <clipPath id="a">
        <path d="M75.72 181.732l70.217-.906V296.81H75.72V181.733z" clip-rule="nonzero"/>
    </clipPath>
    <g clip-path="url(#a)">
        <path d="M133.808 228.268h-6.45" fill="none" stroke="#000"/>
        <path d="M126.9 228.387c0-3.157-1.176-3.156-2.103-3.156-.927 0 .114 1.272.114 3.015s-1.04 3.3-.113 3.3 2.104-.286 2.104-3.158z"
              fill-rule="nonzero"/>
        <path d="M126.9 228.387c0-3.157-1.176-3.156-2.103-3.156-.927 0 .114 1.272.114 3.015s-1.04 3.3-.113 3.3 2.104-.286 2.104-3.158z"
              fill="none" stroke-width=".91" stroke="#000"/>
        <path d="M133.808 278.42h-6.45" fill="none" stroke="#000"/>
        <path d="M126.9 278.538c0-3.157-1.176-3.156-2.103-3.156-.927 0 .114 1.27.114 3.014 0 1.743-1.04 3.3-.113 3.3s2.104-.286 2.104-3.158z"
              fill-rule="nonzero"/>
        <path d="M126.9 278.538c0-3.157-1.176-3.156-2.103-3.156-.927 0 .114 1.27.114 3.014 0 1.743-1.04 3.3-.113 3.3s2.104-.286 2.104-3.158z"
              fill="none" stroke-width=".91" stroke="#000"/>
        <path d="M77.182 309.63v-86.094c0-6.687 9.095-30.81 33.646-30.81 24.552 0 33.646 24.123 33.646 30.81v86.094"
              fill="none" stroke-width="2.5" stroke="#000"/>
        <path d="M87.85 310.418v-82.952c0-11.39 9.053-24.43 22.978-24.43v107.83-107.83c13.926 0 22.98 13.04 22.98 24.43v82.952"
              fill="none" stroke-width="1.2" stroke="#000"/>
        <path d="M87.85 228.268h6.45" fill="none" stroke="#000"/>
        <path d="M94.756 228.387c0-3.157 1.177-3.156 2.104-3.156.926 0-.114 1.272-.114 3.015s1.04 3.3.114 3.3c-.927 0-2.104-.286-2.104-3.158z"
              fill-rule="nonzero"/>
        <path d="M94.756 228.387c0-3.157 1.177-3.156 2.104-3.156.926 0-.114 1.272-.114 3.015s1.04 3.3.114 3.3c-.927 0-2.104-.286-2.104-3.158z"
              fill="none" stroke-width=".91" stroke="#000"/>
        <path d="M87.85 278.42h6.45" fill="none" stroke="#000"/>
        <path d="M94.756 278.538c0-3.157 1.177-3.156 2.104-3.156.926 0-.114 1.27-.114 3.014 0 1.743 1.04 3.3.114 3.3-.927 0-2.104-.286-2.104-3.158z"
              fill-rule="nonzero"/>
        <path d="M94.756 278.538c0-3.157 1.177-3.156 2.104-3.156.926 0-.114 1.27-.114 3.014 0 1.743 1.04 3.3.114 3.3-.927 0-2.104-.286-2.104-3.158z"
              fill="none" stroke-width=".91" stroke="#000"/>
    </g>
    <path d="M23.043 167.375h173.67" fill="none" stroke-width="2" stroke-linecap="square"
          stroke="#000"/>
</svg>