<svg viewBox="0 0 57 57" xmlns="http://www.w3.org/2000/svg" fill-rule="evenodd" clip-rule="evenodd"
     stroke-linejoin="round" stroke-miterlimit="1.414">
    <g fill="#fff">
        <path d="M53.462 29.755a2.146 2.146 0 0 0-4.293 0c0 .66.302 1.242.77 1.636l-5.77 17.233 1.403.47 5.756-17.19a2.15 2.15 0 0 0 2.13-2.147z"
        />
        <path d="M28.28 45.39c17.04 0 30.85 8.277 30.85 18.485-32.353.112-23.09.112-61.698 0 0-10.207 13.81-18.484 30.85-18.484zm21.943-13.086l-2.236 7.194-11.362-3.528 13.598-3.666z"
        />
        <path d="M16 17.116c-1.962 1.143-6.668 4.275-8.447 8.9a.464.464 0 0 0 .06.437.468.468 0 0 0 .403.183l5.758-.446c.005-.02.004-.04.01-.057L16 17.116zM30.852 34.356c1.55-4.7-.062-10.106-.816-12.183l-4.118 8.378c-.005.015-.012.022-.02.036l4.155 4.07a.462.462 0 0 0 .164.104.46.46 0 0 0 .604-.265.448.448 0 0 0 .03-.14zM20.537 32.153c-1.08 1.377-2.156 2.357-2.84 2.107-.686-.25-.88-1.69-.824-3.44-.893.083-1.63.573-2.037 1.692-.68 1.87-2.012 9.824-.306 10.447 1.705.618 5.8-6.33 6.48-8.2.407-1.12.155-1.968-.473-2.607z"
              fill-rule="nonzero"/>


        <path d="M33.307,10.727C33.828,7.949 33.536,3.93 31.924,1.682C31.885,1.63 31.854,1.571 31.817,1.521C31.719,1.396 31.612,1.291 31.506,1.18C31.442,1.112 31.381,1.031 31.315,0.967C31.239,0.898 31.155,0.847 31.077,0.783C30.968,0.695 30.86,0.599 30.743,0.524C30.688,0.49 30.624,0.47 30.569,0.44C30.415,0.354 30.26,0.268 30.092,0.207C29.971,0.163 29.846,0.144 29.719,0.114C29.61,0.088 29.502,0.049 29.389,0.031C29.213,0.008 29.034,0.008 28.852,0.009C28.79,0.009 28.729,-0.002 28.666,0.001C28.52,0.009 28.376,0.039 28.231,0.061C28.127,0.077 28.027,0.08 27.924,0.103C27.862,0.116 27.8,0.142 27.736,0.158C25.804,0.653 23.806,2.289 22.319,4.103C22.069,4.405 21.841,4.715 21.625,5.023C21.172,5.666 20.786,6.306 20.506,6.909C20.401,7.131 20.311,7.346 20.235,7.555L15.558,26.592C15.457,26.941 15.644,27.308 15.983,27.432L23.4,30.13C23.742,30.255 24.121,30.093 24.267,29.761L32.936,12.129C33.085,11.719 33.208,11.246 33.307,10.727ZM24.523,15.506C23.13,14.999 22.411,13.459 22.918,12.065C23.425,10.672 24.966,9.953 26.362,10.462C27.753,10.969 28.473,12.509 27.966,13.902C27.457,15.294 25.917,16.011 24.523,15.506Z"
              fill-rule="nonzero"/>
    </g>
</svg>