<svg viewBox="0 0 500 500" xmlns="http://www.w3.org/2000/svg" fill-rule="evenodd" clip-rule="evenodd" stroke-linejoin="round" stroke-miterlimit="1.414"><g fill-rule="nonzero"><path d="M187.003 242.476c-9.782 0-17.71-7.932-17.71-17.71 0-9.782 7.928-17.712 17.71-17.712 9.78 0 17.714 7.93 17.714 17.713 0 9.777-7.933 17.71-17.714 17.71m46.408-25.815h-6.006a42.01 42.01 0 0 0-1.737-6.148l5.02-2.897a2.53 2.53 0 0 0 .918-3.446l-5.03-8.71a2.527 2.527 0 0 0-3.44-.92l-5.217 3.012a40.665 40.665 0 0 0-4.566-4.45l2.905-5.028c.69-1.21.28-2.744-.925-3.444l-8.71-5.03a2.515 2.515 0 0 0-3.434.925l-3.007 5.21a40.303 40.303 0 0 0-6.19-1.566v-5.815a2.517 2.517 0 0 0-2.518-2.516h-10.057a2.52 2.52 0 0 0-2.526 2.515v6.014a41.29 41.29 0 0 0-6.138 1.73l-2.892-5.018a2.53 2.53 0 0 0-3.455-.92l-8.712 5.035a2.51 2.51 0 0 0-.914 3.43l3.01 5.222a40.1 40.1 0 0 0-4.447 4.56l-5.028-2.905a2.534 2.534 0 0 0-3.444.93l-5.037 8.71c-.69 1.2-.28 2.742.926 3.436l5.208 3.01a40.727 40.727 0 0 0-1.56 6.183h-5.805c-1.4 0-2.526 1.13-2.526 2.52v10.058a2.52 2.52 0 0 0 2.526 2.522h6.004c.42 2.107 1 4.168 1.73 6.146l-5.02 2.9a2.513 2.513 0 0 0-.92 3.43l5.03 8.72a2.523 2.523 0 0 0 3.44.92l5.215-3.012a41.078 41.078 0 0 0 4.57 4.456l-2.9 5.034c-.7 1.2-.288 2.742.915 3.434l8.723 5.028c1.2.694 2.738.286 3.427-.915l3.013-5.212c2 .672 4.066 1.198 6.187 1.56v5.815a2.51 2.51 0 0 0 2.51 2.51l10.066.006a2.516 2.516 0 0 0 2.517-2.515v-6.01c2.106-.427 4.16-1 6.147-1.732l2.9 5.015a2.508 2.508 0 0 0 3.434.92l8.718-5.033c1.2-.687 1.61-2.23.917-3.44l-3.015-5.212a40.45 40.45 0 0 0 4.458-4.564l5.03 2.905a2.522 2.522 0 0 0 3.438-.924l5.032-8.717c.692-1.2.274-2.74-.918-3.434l-5.21-3.015a41.192 41.192 0 0 0 1.565-6.174h5.806a2.52 2.52 0 0 0 2.513-2.524v-10.06a2.507 2.507 0 0 0-2.512-2.514" fill="#de3f18"/><path d="M186.128 250.848c-14.01-.46-25.23-11.96-25.23-26.08 0-14.126 11.22-25.624 25.23-26.083V175.84h-4.713a2.52 2.52 0 0 0-2.526 2.516v6.013a41.29 41.29 0 0 0-6.138 1.73l-2.892-5.017a2.53 2.53 0 0 0-3.455-.92l-8.712 5.035a2.51 2.51 0 0 0-.914 3.43l3.01 5.222a40.172 40.172 0 0 0-4.447 4.56l-5.028-2.904a2.534 2.534 0 0 0-3.444.93l-5.037 8.71c-.69 1.2-.28 2.742.926 3.436l5.208 3.01a40.727 40.727 0 0 0-1.56 6.182h-5.805c-1.4 0-2.526 1.13-2.526 2.52v10.058a2.52 2.52 0 0 0 2.526 2.52h6.004c.42 2.108 1 4.17 1.73 6.147l-5.02 2.898a2.513 2.513 0 0 0-.92 3.432l5.03 8.72a2.523 2.523 0 0 0 3.44.92l5.215-3.013a41.078 41.078 0 0 0 4.57 4.456l-2.9 5.034c-.7 1.2-.288 2.742.915 3.434l8.723 5.03c1.2.693 2.738.285 3.427-.916l3.013-5.212c2 .67 4.066 1.197 6.187 1.558v5.816a2.51 2.51 0 0 0 2.51 2.51l3.6.004v-22.842zM187.003 199.26v7.795c9.78 0 17.714 7.93 17.714 17.713 0 9.777-7.933 17.71-17.714 17.71v7.794c14.085 0 25.506-11.422 25.506-25.504 0-14.086-11.422-25.508-25.507-25.508" fill="#fd6120"/><path d="M350.73 143.09l-1.66 10.105-10.1 1.662 10.1 1.655 1.66 10.104 1.658-10.104 10.103-1.655-10.102-1.662-1.657-10.104zM243.08 173.36l-1.97 11.943-11.938 1.965 11.937 1.957 1.97 11.943 1.954-11.943 11.938-1.957-11.938-1.965-1.953-11.942zM376.264 127.108l-.865 5.246-5.245.863 5.244.866.864 5.248.86-5.247 5.245-.866-5.246-.863-.86-5.246zM364.61 287.732l-1.435 8.71-8.712 1.435 8.712 1.426 1.436 8.712 1.425-8.712 8.71-1.426-8.71-1.434-1.424-8.71zM388.29 279.29l-.74 4.524-4.524.743 4.523.747.74 4.526.744-4.526 4.524-.747-4.524-.743-.743-4.523z" fill="#fff"/><path d="M387.605 173.733l-1.436 8.71-8.708 1.433 8.707 1.427 1.435 8.71 1.43-8.71 8.707-1.427-8.707-1.432-1.43-8.71zM311.034 126.764l-.742 4.525-4.526.744 4.526.745.742 4.524.743-4.525 4.526-.746-4.526-.745-.743-4.526z" fill="#546c67"/><path d="M280.628 151.78l-.746 4.524-4.522.745 4.522.744.746 4.526.74-4.526 4.526-.745-4.526-.746-.74-4.524z" fill="#fff"/><path d="M325.114 355.39c55.986 12.36 101.542-22.24 101.542-77.146 0-54.893-45.556-103.12-101.542-107.482V355.39z" fill="#00906f"/><path d="M325.114 355.835c50.895 0 92.31-41.405 92.31-92.31 0-50.895-41.415-92.318-92.31-92.318v184.628z" fill="#2898cd"/><path d="M325.114 171.207c-50.908 0-92.327 41.423-92.327 92.317 0 50.906 41.42 92.31 92.327 92.31V171.208z" fill="#6bb8d6"/><path d="M413.425 288.62c-1.218.027-2.797.6-2.823 1.014-.022.423-1.698 1.17-2.253 1.393-.558.224-1.627 1.938-1.867 2.5-.23.57-1.598.396-2.107.624-.505.225-1.55 1.063-1.555 1.57 0 .502-.282.45-.625-.127l-.664.7-.788.877c-.45 1.417-1.952 3.208-2.47 3.36-.516.144-.608 2.638-.608 3.634 0 1.01.39 2.248.872 2.756l.103.798.17 1.587c-.274 1.224.654 2.32.927 2.536.27.21 2.557-.41 3.427-.618.365-.088.817-.29 1.247-.507a91.852 91.852 0 0 0 9.504-22.046 2.084 2.084 0 0 0-.49-.05M260.997 290.982c-.13.25 1.518 1.947 2.16 2.52.64.583 1.997 3.35 2.273 4.26.277.91.11 2.396.022 2.748-.08.35.31 1.12.375 1.437.06.32-.564 3.037-.326 4.13.24 1.09-1.277 4.5-1.244 6.19.036 1.694.8 3.9 1.115 3.736.306-.165.414 1.54-.102 1.742-.52.208-1.122 1.555-.83 1.622.29.072-.02 1.402.063 1.933.076.533.528 4.048.62 4.92.104.877 1.35 3.01 1.615 3.735.263.728.53 2.098.632 2.305.098.212.228.425.243.436.024.007 1.03.38 1.318.602.3.22 2.275.08 2.922-.054.642-.13.048-.72-.24-1.04-.294-.323-.55-1.882-.885-2.04-.332-.155-.475-2.144-.18-2.58.294-.445 1.474-1.145 1.605-1.515.124-.37.16-2.1-.154-2.337-.32-.237.093-2.338-.146-3.384-.24-1.042 1.81-1.993 1.932-2.818.114-.826 2.34-1.716 2.84-2.13.5-.418.94-2.783.702-3.297-.244-.505.82-.92 1.293-.92.468 0 1.002-.338 1.188-.338.178-.008.74-1.054 1.043-1.296.306-.237.93-2.742 1.482-3.155.555-.41 1.01-1.922 1.01-2.364 0-.442.84-1.76 1.115-2.157.28-.4 2.352-1.35 2.722-1.495.37-.157.93-3.485 1.077-4.68.14-1.195.762-2.793.81-3.187.038-.39.708-.727.826-.852.127-.126.62-1.65.936-2 .32-.348 1.465-1.8 1.492-2.126.026-.326.2-1.155.392-1.853l-.006-.814.01-1.296c-.364-1.003-1.474-2.258-1.762-1.982-.283.275-1.567-.885-2.22-1.133-.66-.244-2.285-.447-2.698-.447-.413 0-1.84-1.167-2.48-1.37-.638-.198-2.27-.513-2.57-.704-.298-.188-.697-2.617-2.008-3.408-1.32-.795-3.623-2.642-3.872-3.323-.25-.68-2.777-2.106-3.56-2.535-.777-.43-1.958-.533-2.105-.375-.152.146-1.12-1.316-1.622-1.734-.507-.408-2.017-.757-2.084-.386-.064.373-1.073.178-1.31-.14-.23-.312-1.013.128-1.377.25-.365.115-1.62 2.033-2.192 2.496-.584.457-1.268-.427-1.65-.593-.38-.165-1.827.287-2.225.567-.39.28-1.307-2.03-1.093-3.094.206-1.062-.952-3.177-1.856-3.23-.89-.052-1.173-2.273-.993-3.094.18-.818-1.623-1.332-2.074-1.386-.462-.06-1.576 1.094-1.77 1.647-.194.553-4.278-.753-3.79-3.204.473-2.446 2.41-4.98 2.89-5.283.48-.296 3.105-.446 3.687-.114.584.338 1.106-.006 1.204-.156.097-.15 2.24.025 2.884.287.636.26 1.555 2.732 2.213 3.035.67.31.91-1.596 1.012-2.058.115-.464-.32-1.64-.478-1.974-.164-.33 1.06-3.326 2.07-3.837.992-.514 2.05-2.18 1.967-2.475-.086-.294.8-.526 1.04-.653.24-.118-.038-2.545.36-3.075.396-.522 2.268-1.633 2.867-1.886.59-.25 1.038-1.78.825-2.046-.216-.274 1.54-1.767 2.45-2.057.91-.277 1.697.526 1.473.65.182-.097 1.438-.747 1.97-1.1.625-.416.006-1.55-.39-1.886-.405-.33-.164-1.644.32-1.767.49-.117.91-1.257.778-1.5-.125-.248 2.008.195 2.817-.408.808-.603.235 1.445-.363 2.27-.586.823.44 1.607.82 1.448.382-.157.79.44.867.67.075.232.898-.24 1.43-.006.544.238.86-.735.904-1.18.037-.452-1.284-1.38-1.498-1.916-.2-.54-.288-3.665-.315-4.31-.032-.64-.89-1.678-1.17-1.492-.276.177-.838-1.664-1.282-2.065-.452-.403-.55-1.287-.534-1.584.02-.298-1.515-1.898-1.882-2.64-.37-.742-.888-.592-.922-.254-.038.342-1.1.387-1.54.346-.44-.04-.8-1.733-.8-2.375 0-.635-1.974-.747-2.302-1.264-.32-.513-1.61-.27-1.815-.628-.208-.357-1.35-.685-1.567-.554-.24.136-.125 4.728-.344 5.966-.223 1.237-1.27 2.325-1.654 2.298-.382-.028-.16.883.11.802.268-.087-.742 1.35-.878 2.294-.13.936-1.088-.044-1.24-.897-.158-.854-1.088-2.008-1.264-1.715-.18.29-.82-.348-1.103-.17-.277.187-2.04-1.022-2.752-1.413-.708-.375-1.11-2.562-1.517-2.755-.413-.195-.066-.457-.08-.79-.012-.33 1.38-1.6 1.8-2.105.42-.505 1.946-2.49 2.55-2.915.61-.433 1.08-1.567.976-1.78-.103-.204 2.588-1.046 3.323-1.3.73-.25 1.36-2.284 1.457-2.87.104-.586-.457-1.696-.795-1.837-.34-.147 1.018-.198 1.47.027.452.222 1.84-.41 2.388-.12.55.29 1.66.95 2.465 1.458l-.18 1.495-.32 2.533c-2.128.884-2.738 2.402-1.994 2.37.743-.035 4.137 1.47 5.096 2.155.957.687 1.26-.994 1.545-1.554.283-.552.19-2.18-.04-2.5-.233-.326 1.113-.21 1.488.152.375.357.816-.375 1.11-.503.283-.13.43-1.52.587-1.8.153-.286-.636-.568-.658-.914-.028-.358-1.55-1.018-2.044-1.253-.503-.237-.62-1.29-.372-1.47.247-.188-.168-1.526-.412-1.966-.24-.44-1.834-.803-2.367-.803-.527 0-1.077-1.23-1.387-1.41-.304-.176-2.348-.4-2.85-.25-.505.147-1.437-1.454-2.285-.965-.854.488-1.736-.57-2.123-.782-.385-.21-2.388 1.935-2.366 3.442.022 1.512.778 2.968 1.087 3.01.316.042-.07 1.406-.42 1.797-.34.384-1.184-.414-.863-.756.316-.34-.87-1.92-1.28-2.562-.287-.466-1.325-.874-2.034-1.158-.413.447-.81.904-1.214 1.36.16.552.344 1.265.165 1.804-.3.92-1.067 1.058-1.11.66-.02-.175-.412-.308-.87-.37-11.18 13.41-18.624 30.032-20.756 48.253.447.51.953 1.112 1.084 1.544.253.808 1.664 1.343 1.93 1.51.26.16.355-1.552.162-1.998-.178-.446.345-.713.332-.387-.01.33 1.327 1.835 1.763 2.385.44.54.898 4.063 1.316 4.818.427.758 4.485 2.324 5.797 2.596 1.31.28 2.957 1.74 3.215 2.16.257.423 1.99.638 2.366.805.376.173 1.27 1.35 1.64 1.596.362.25.656.948.656 1.137 0 .186 2.297 1.053 2.857 1.666.555.614 1.476.448 1.65.188.175-.256.625 1.22.864 1.73.228.514.29 1.768.11 1.967-.18.196-.513 2.508-.9 2.967-.396.465-1.206 3.82-1.032 4.48.18.666 1.257 2.033 1.725 2.238.463.202.26.92-.104.97-.364.044-.195 3.25.67 3.723.864.472 1.582 1.893 1.464 2.137" fill="#c1e2de"/><path d="M271.86 234.753l.006-.002c-.03.016-.036.02-.005.003M265.55 195.818c1.104-.186 2.942-.49 3.07-.802.09-.254.102-1.012-.104-1.28.172.014.38.02.532.02.42 0 1.122-2.3 1.563-2.835.447-.535 2.97-1.33 3.567-1.693.606-.366 1.923-1.632 2.43-1.78.504-.15 1.245-1.33 1.13-1.57-.11-.236 1.714-1.342 2.405-1.635.69-.292 1.05-1.105.79-1.137-.164-.02-4.023 1.993-7.554 4a92.804 92.804 0 0 0-11.36 9.116c1.105-.08 2.81-.28 3.532-.402M332.316 310.72c1.18-.697 3.19-3.666 3.848-4.29.658-.626 1.14-2.874 1.283-3.362.13-.492 1.133-1.286 1.506-1.394.377-.104 1.573-5.084 2.624-6.17 1.05-1.087 2.285-6.348 2.153-8.245-.136-1.89.67-5.494.92-6.364.256-.868 1.573-2.404 1.98-2.723.408-.32 2.944-4.078 3.766-5.42.81-1.35 1.594-4.304 1.436-4.995-.16-.696-1.92-1.18-2.252-.84-.332.346-1.993.626-2.526.626-.533 0-1.752-2.847-2.508-3.433-.755-.585-1.436-3.848-1.87-4.464-.436-.618-1.655-2.182-2.035-2.543-.38-.358-.45-2.085-.532-2.56-.088-.47.732.312.876.997.14.69 2.093 3.47 2.703 4.41.604.936 2.198 3.915 2.605 4.848.41.932 3.957.46 5.104-.082 1.16-.547 2.59-1.465 2.644-1.786.054-.323 1.893-1.163 2.4-1.573.507-.41.964-2.54 1.294-2.884.332-.35-.266-2.383-.652-2.988-.38-.61-2.22-1.09-2.59-.854-.374.24-1.17-1.36-1.452-1.95-.284-.593-1.687-1.313-1.846-1.716-.145-.408.383-1.042.605-1.18.223-.142 2.817 1.68 3.568 2.586.74.906 1.595 2.57 1.74 2.864.132.287 2.187.435 2.646.097.45-.334.978-.244 1.157.19l.65-.11 2.246-.352c1.062 1.153 1.37 2.15 1.345 2.383-.022.22.654 1.16 1.09 1.26.432.102.755 1.572.89 1.934.125.37 1.41 2.57 1.67 3.494.268.928 1.36 2.736 1.623 3.218.26.488.47 1.892.47 2.274 0 .38.825 1.137 1.34 1.102.507-.036 1.54-3.257 1.78-4.457.24-1.197 1.067-2.186 1.3-2.186.235 0 .42-.675.42-.932 0-.25 1.305-.226 1.425-.552.108-.328.494-2.457.957-2.78.47-.324 2.117-1.404 2.7-1.606.574-.2 2.05 1.074 2.388 1.67.325.594.624 2.11.5 2.356-.126.248.777 1.553 1.57 1.533.78-.025 1.03.996 1.05 1.366.034.368 1.068 1.422 1.276 1.894.206.47.145 1.757.005 2.05-.137.29-.045 1.98.108 2.452.15.47 2.573 2.925 3.476 3.67.907.742 1.338-1.517.876-2.22-.47-.706-2.053-2.342-2.422-2.827-.37-.495-.436-2.456-.293-3.005.136-.55 1.382.305 1.898.7.517.397 1.198 1.283 1.214 1.58.022.292 3.263-1.525 3.377-3.498.115-1.975 1.193-4.2 1.3-4.717.11-.523-.32-1.234-.592-1.253-.277-.026.478-1.508 1.393-1.484.915.028 3.103-2.413 3.617-3.378.52-.97 1.564-1.766 1.684-1.892.125-.11.854-2.403.974-3.35.125-.946-.533-2.427-.61-2.918-.076-.486-.86-1.616-1.066-1.97-.196-.354-.39-1.68-.267-1.93.12-.24.942-.507 1.03-.725.087-.225 1.03-1.225.956-1.668-.07-.444.583.572 1.013.94.43.362.898 2.714 1.43 2.975.52.258 2.682-2.495 2.416-4.27-.26-1.78.624-4.052 1.14-4.258.4-.155 1.412-1.593 2.097-2.62-4.738-13.684-12.596-25.913-22.737-35.837-.12.01-.238.01-.347-.01l-.795-.168c-1.322-.283-2.09-1.7-1.866-2.027.074-.102.058-.34-.007-.622a85.328 85.328 0 0 0-2.264-1.96c-.628-.02-1.286 0-1.67-.016-.795-.033-2.514-.597-2.826-.905-.308-.307-1.342.273-1.407.845-.072.574-1.873.838-2.04 1.276-.185.435-1.11.468-1.29.22-.18-.245-1.855.592-2.693.714-.832.116-2.384.793-2.758.96-.377.162-1.258 1.028-1.404 1.387-.135.36-1.208.96-1.55 1.096-.35.136-.274 1.693.167 1.916.44.213-.826-.188-1.382-.478-.567-.28-1.182.665-1.356.992-.177.32-.69-.197-.67-.662.018-.465-1.38-.84-1.566-.467-.185.37-1.15-.126-1.556-.335-.4-.215-2.143 1.6-2.786 2.248-.64.65-3.727 1.156-4.302.912-.577-.242-1.143 1.365-.647 1.47.483.1-1.252-.077-2.21.012-.957.092-3.742 1.205-4.4 1.7a.724.724 0 0 1-1.208-.49c0-.38-1.057-.733-1.37-.837-.313-.107-.932 2.08-1.482 2.502-.555.43-1.22-1.707-2.518-2.06-1.3-.35-3.33-1.604-3.907-1.754-.57-.153-1.736-1.365-2.056-1.713-.327-.356-1.992-.645-2.525-.645-.534 0-2.254.986-2.712 1.375-.47.39-1.163.313-1.386.45-.235.143-2.18 2.046-2.932 2.643-.756.594-2.073 3.163-2.496 3.777a1.762 1.762 0 0 1-1.307.74c-.25.01-.457.698-.457.948 0 .254-2.236 1.418-2.466 2.43-.238 1.013.218 3.33.218 4.155 0 .822.828 2.456 1.447 2.482.615.027.292 1.398.13 1.78-.16.39.39.81.376 1.138-.016.326-1.566.785-2.046.97-.484.176-1.256 1.26-1.36 1.665-.088.35-1.577.598-2.067 1.072.12-.34.288-.81.423-1.076.284-.543-.108-1.487-.34-1.68-.236-.195-.35-2.882-.726-3.455-.374-.578-1.316-1.55-1.544-1.74-.234-.188.157-.894.294-1.196.135-.296-1.253-.47-1.632-.247-.382.22-.583 2.875-.746 3.604-.152.727.685 1.844.92 1.897.223.054.163 1.36-.32 1.404-.49.05-.937 1.96-.688 2.394.25.44-.346 1.292-.636 1.492-.287.194 1.867.082 2.857.058.98-.03 1.75.414 1.648.495-.102.08-1.882.343-2.204.765-.315.423-1.524 1.232-1.76 1.56-.233.32.4 1.04.912 1.004.508-.03 1.092 1.77 1.495 2.102.39.334.25 1.266.077 1.525-.18.25-2.585-.175-3.493.05-.918.226-2.073 2.16-2.15 2.888-.085.73.144 2.825.268 3.405.113.575 2.03.94 2.41 1.223.398.28 2.225.01 2.612.185.37.18 1.61-1.855 1.856-2.797.232-.95 2.186-2.68 2.594-3.326.408-.64 2.507-.564 3.024-.902.52-.332.23 1.596.48 2.654.246 1.065 2.256.93 1.964-.068-.293-.99.2-1.425.278-1.064.088.356 2.017 1.147 2.388 1.705.364.563.26 1.748-.17 1.735-.428-.018-.446 1.304.012 1.448.45.138 1.055-1.487 1.545-1.728.49-.245.883-1.258.652-1.335-.215-.077.415-.985.694-.684.275.3-1.03-1.977-1.856-2.806-.823-.826-.245-.46 1.295.822l1.06 1.49c.207.263.48 1.08.664 1.376l.244.44c.212.52.392 1.945.392 2.333 0 .383.837 1.142 1.337 1.104.507-.037.893.24.79.26-.103.018.333 1.005.837 1.028.5.02.72-1.276.212-1.306-.505-.025-.43-1.9-.493-2.713-.058-.82.362-1.485.537-1.485.173 0-.022 1.676-.006 2.06.007.39.22 1.148.46 1.692l.52.394 1.164.897c1.67-.492 3.913-.113 3.83.227-.092.343 1.235.427 1.312-.126.082-.545.142.017.142.4 0 .376-1.094 1.867-1.278 2.558-.186.687-4.042.222-5.703.092-1.66-.125-4.11.44-4.298.935-.186.5-2.775-1.138-3.97-1.637-1.184-.503-2.118-2.313-2.357-2.548-.252-.24.2-.822.086-1.182-.116-.36-2.825-.434-3.615-.14-.79.29-4.85.72-5.817 1.142-.96.43-2.414-.03-2.86-.107-.452-.078-1.528 1.25-2.074 1.49-.553.24-1.238 2.12-1.538 4.187l-.74 1.438-.478.922c-1.344 1.022-2.83 4.43-3.27 5.114-.43.683-.784 5.593-.784 7.242 0 1.65 1.442 5.148 1.85 6.112.41.962 2.9 3.098 3.726 3.607.833.502 3.535.57 4.43.568.88-.005 1.893-.845 2.236-1.87l1.3.13.598.058c.027.73 1.948 1.312 2.42 1.567.464.257 1.732.06 2.107-.05.376-.107.802 3.283.522 4.265-.27.976.67 4.416.944 5.448.28 1.038 1.455 3.866 1.576 4.885.113 1.015-.692 4.392-.826 5.574-.13 1.185 1.472 4.493 1.897 5.628.418 1.14.768 3.586.768 4.152 0 .57 1.758 3.99 2.156 5.397.408 1.412 4.814 1.754 6 1.063M408.42 268.808c.113.248 1.222-.63 1.887-.73.67-.105 1.087-1.892.566-2.017-.52-.142-1.18-1.512-1.563-1.68-.368-.167-1.103.59-1.07 1.13.028.542-1.208.764-1.448 1.216-.228.447-.218.774.04.73.245-.045 1.474 1.1 1.588 1.352M407.06 278.502c.333-.123-.038-1.886-.73-2.034-.695-.142-2.606 2.325-2.24 3.744.366 1.414.76 1.33.96 1.032.198-.297 1.34.195 1.678.307.333.11.333-.232 0-.755-.338-.524.006-2.17.333-2.293M403.283 276.783c.077-.63.2-2.6.305-2.993.11-.392-1.073-1.52-1.653-1.726-.578-.202-2.438 3.835-3.777 4.552-1.338.72-1.817 3.178-1.47 3.746.36.568 3.147.868 3.63 1.298.49.427 1.028-.068 1.32-.14.297-.072.203-.26.095-.335-.114-.07.97-1.215 1.125-1.943.153-.722.344-1.834.425-2.46M395.702 283.505c-1.048-.395-2.277.222-2.375.627-.104.402 4.026 1.06 5.397 1.43 1.366.372 2.22.492 1.91.26-.316-.23-3.89-1.92-4.932-2.317M404.077 256.647c.334-.463-.462-2.623-.858-2.134-.4.488-.11 1.748.015 2.192.125.43.51.406.842-.058M406.57 261.284c.24-.558-.3-1.175-1.192-1.36-.892-.186-.762 2.5-.37 2.842.386.338 1.317-.92 1.56-1.482M411.217 277.93c1.065.75 3.453.405 3.525-1.04-1.056-.692-3.618-.575-3.525 1.04M410.64 244.988c-.446.31-.68 1.103-.545 1.423a2.675 2.675 0 0 0-.18-.005c-.358 0-.397 1.408-.02 1.65.362.24 1.27-1.1 1.74-1.417.475-.322 1.42-.516 1.563-.413.146.1.967-.15 1.842-.55.154-.075.338-.304.522-.632-.21-1.03-.462-2.042-.7-3.056-.447.327-.948.68-1.182.887-.472.426-2.457 1.714-3.04 2.114" fill="#c1e2de"/><path d="M386.238 273.326c.007.004.012.002.012.005-.186-.13-.213-.15-.012-.004M392.886 279.524c-.385-.876-1.664-2.354-2.84-3.29l-.444-.73-.49-.81c-.436-.885-1.763-1.568-1.872-1.836-.116-.257-.538.772-.99.473.24.166.733.518 1.43 1.012 1.24.887 3.63 6.902 4.174 7.323.54.422 1.42-1.267 1.032-2.14M373.827 269.81c-.33.68 1.768 2.122 1.933 1.79.173-.33-.268-1.995-.64-2.363-.372-.366-.954-.105-1.293.572M345.94 301.927c.082.714 1.532 1.28 1.947 1.166.43-.12 1.6-2.28 1.763-2.898.164-.628.294-1.964.294-2.283 0-.315.197-1.032.358-1.12.158-.084.425-.82.587-1.632.165-.818-.87-4.607-.898-5.273-.027-.667-.778.344-.968 1.017-.205.673-2.09 2.045-2.513 2.62-.412.57-.876 2.507-.712 2.843.157.33-.164 1.652-.353 2.023-.186.365.418 2.82.495 3.537M277.878 328.17h1.27c.22-1.374-1.34-1.145-1.27 0M311.707 185.328c-.534.066-1.908-.207-2.15-.462-.233-.253-2.293-.476-2.893-.226-.592.252-.185-1.45.643-1.634.827-.186.124-1.358-.758-1.36-.88-.007-3.058-.33-3.57-.214-.515.11-1.51-.357-1.877-.41-.363-.05-2.98.784-4.214.72-1.243-.054-4.278.07-4.93.255-.67.173-1.145 1.462-1.047 1.916.094.46-2.942.452-3.894.464-.96.013-6.046 1.097-7.38 1.83-1.326.726-2.366 2.597-1.925 2.636.44.033-.738 1.093-1.447 1.34-.717.245-2.427.353-2.824.757-.404.397.425.673.582.944.158.265.638-.234 1.09.024.445.25 1.93.374 2.32.524.4.156-1.254.47-2.034.527-.778.054-.603 1.58.03 1.79.634.213 2.267.44 2.435.174.164-.266 1.938.29 2.736.383.795.085 1.406 2.084 1.65 2.52.244.432.294 1.954.233 2.395-.053.44 1.414 1.244 1.675.964.264-.28.192.69-.395.638-.588-.05-.2 1.64.523 1.888.717.238.223 1.28-.19 1.597-.42.312-.192 1.308-.62 1.668-.425.352 1.517 3.72 1.506 5.45-.01 1.73 1.067 3.145 1.48 3.145.412 0 1.84.35 2.024.72.185.37.875-.257 1.148-.544.26-.28.842-1.114 1.283-1.847.433-.734 1.413-4.207 1.545-4.58.13-.373 1.763-.14 2.133-.33.37-.19 1.435-1.027 1.742-1.28.298-.25 2.627-1.233 3.263-1.695.63-.455 1.69-2.426 2.187-2.848.49-.42-.257-.294-.876-.7-.615-.405-.344-.904-.164-1.092.175-.192 2.05.31 2.7.562.648.256 1.876-.638 1.408-.983-.48-.34-.228-.332 0-.188.23.14.468-1.137.224-1.38-.252-.246 1.892-1.81 1.518-3.29-.377-1.477.582-2.998 1.157-3.014.583-.02.415-1.673-.28-1.826-.688-.15-.04-.303.222-.54.248-.236.58-1.71.428-1.995-.154-.287 1.055-.602 1.262-.94.222-.334 1.6-.995 2.088-1.105.486-.114.758-1.41.23-1.352M323.73 186.538c-.657-.223-1.99.504-1.82.915.175.42-1.09-.526-1.965-.076-.875.462-1.12 2-.72 2.2.41.2.698 1.424.71 1.66.017.238 1.707.067 2.143-.288.43-.358.37 1.238-.054 1.67-.43.433.152 1.297.625 1.368.474.068 1.107 1.18 1.596 1.167.48-.013 1.315-1.876 1.5-2.577.19-.694 1.805-.145 2.546.078.74.218 1.005-2.57.207-2.99-.796-.416-1.798-.208-2.13-.527-.332-.323-.897-.623-1.272-.678-.372-.055-.72-1.703-1.367-1.924M330.18 187.873c1.298.183 2.768-.888 3.083-1.193.32-.3-3.612-1.1-5.102-1.147-1.496-.05-2.704.156-2.682.453.02.288 3.394 1.7 4.7 1.887M306.414 223.102c-.342-.143-.533 1.145-.45 1.633.075.49 1.277.448 1.788.36.513-.085.91-.5.887-.925-.023-.42-.75-2.34-1.038-2.34-.29 0-.84 1.41-1.188 1.272M310.277 208.12c-.27-.473-2.313-.417-2.813-.447-.495-.026-2.024-.537-2.313-.863-.286-.322-.51 1.26-.974 1.464-.472.205.226.508.42.34.19-.17-.01.812-.223 1.15-.212.337 1.36.573 1.54 1.084.175.508.824.84 1.442.742.615-.104 1.844-.74 2.28-.782.43-.044.91-2.217.64-2.69M353.18 196.418c.704-.706 3.593-1.655 3.92-2.384.325-.727-.203-1.322-.496-1.322-.294 0-.652.367-.72.482-.07.12-3.388.9-4.4 1.393-1.024.488-2.202 1.244-2.626 1.68-.43.43-1.133 3.714-1.38 4.086-.243.37 1.1 1.71 1.7 2.08.597.367 1.42.173 1.65.104.232-.072-.312-2.367-.618-3.166-.32-.794 2.27-2.24 2.97-2.952M349.635 187.858c1.093 1.08 1.692-.484 2.888-.33-.02-2.2-2.996-1.446-2.888.33M370.836 188.267c-.033.406 3.02.73 3.912.576.893-.157-.184-1.546-1.49-1.466-1.3.085-2.384.487-2.422.89M260.387 210.89c-.32.295-.043 1.79.57 1.834.61.043 1.583-2.256 2.335-1.795.746.462 1.25.642 1.13.398-.13-.242-2.256-1.176-2.517-1.345-.266-.16-1.192.614-1.518.907M268.19 261.538c0 .252 1.327.218 1.55-.192.207-.405.098-.737-.262-.737-.353 0-1.288.67-1.288.928M262.27 259.35c.636-.118.337.91.49 1.276.152.376 1.68.668 1.986.92.303.248 1.092-.468 1.703-.39.607.076-.202-2.113-1.226-2.05-1.022.067-1.834-.927-2.073-1.047-.25-.112-1.43-.83-1.774-1.106-.332-.273-2.936-.504-3.824-.504-.886 0-1.86.905-1.995 1.196-.14.302 1.402.502 1.837.267.447-.23 2.51.26 2.934.758.424.494 1.3.803 1.942.68M259.485 261.538c0 .252 1.343.097 1.664.106.324.005.315-.217-.022-.488-.338-.273-1.643.125-1.643.382M260.437 254.63c-.35-.14-.632.41-.632.668 0 .258.192.47.43.47.234 0 .55-.997.202-1.138M263.248 254.845c-.114-.26-.69-.468-.864-.468-.176 0-.293.447-.263.983.03.544 1.243-.26 1.128-.515M265.278 257.963c.538-.26.608-.91.288-.874-.326.032-.92-.936-1.274-1.072-.348-.14-.63.577-.63.892 0 .32.195.532.432.47.242-.06.633.836 1.183.583M415.254 279.052c-.283.147-1.633.307-1.813.042-.18-.266-.445.55-.738.678-.283.134-.132.84.304.623.3-.15 1.584.562 2.628 1.215.206-1.033.387-2.07.56-3.117-.375.198-.77.465-.94.56" fill="#c1e2de"/><path d="M260.997 290.982c-.13.25 1.518 1.947 2.16 2.52.64.583 1.997 3.35 2.273 4.26.277.91.11 2.396.022 2.748-.08.35.31 1.12.375 1.437.06.32-.564 3.037-.326 4.13.24 1.09-1.277 4.5-1.244 6.19.036 1.694.8 3.9 1.115 3.736.306-.165.414 1.54-.102 1.742-.52.208-1.122 1.555-.83 1.622.29.072-.02 1.402.063 1.933.076.533.528 4.048.62 4.92.104.877 1.35 3.01 1.615 3.735.263.728.53 2.098.632 2.305.098.212.228.425.243.436.024.007 1.03.38 1.318.602.3.22 2.275.08 2.922-.054.642-.13.048-.72-.24-1.04-.294-.323-.55-1.882-.885-2.04-.332-.155-.475-2.144-.18-2.58.294-.445 1.474-1.145 1.605-1.515.124-.37.16-2.1-.154-2.337-.32-.237.093-2.338-.146-3.384-.24-1.042 1.81-1.993 1.932-2.818.114-.826 2.34-1.716 2.84-2.13.5-.418.94-2.783.702-3.297-.244-.505.82-.92 1.293-.92.468 0 1.002-.338 1.188-.338.178-.008.74-1.054 1.043-1.296.306-.237.93-2.742 1.482-3.155.555-.41 1.01-1.922 1.01-2.364 0-.442.84-1.76 1.115-2.157.28-.4 2.352-1.35 2.722-1.495.37-.157.93-3.485 1.077-4.68.14-1.195.762-2.793.81-3.187.038-.39.708-.727.826-.852.127-.126.62-1.65.936-2 .32-.348 1.465-1.8 1.492-2.126.026-.326.2-1.155.392-1.853l-.006-.814.01-1.296c-.364-1.003-1.474-2.258-1.762-1.982-.283.275-1.567-.885-2.22-1.133-.66-.244-2.285-.447-2.698-.447-.413 0-1.84-1.167-2.48-1.37-.638-.198-2.27-.513-2.57-.704-.298-.188-.697-2.617-2.008-3.408-1.32-.795-3.623-2.642-3.872-3.323-.25-.68-2.777-2.106-3.56-2.535-.777-.43-1.958-.533-2.105-.375-.152.146-1.12-1.316-1.622-1.734-.507-.408-2.017-.757-2.084-.386-.064.373-1.073.178-1.31-.14-.23-.312-1.013.128-1.377.25-.365.115-1.62 2.033-2.192 2.496-.584.457-1.268-.427-1.65-.593-.38-.165-1.827.287-2.225.567-.39.28-1.307-2.03-1.093-3.094.206-1.062-.952-3.177-1.856-3.23-.89-.052-1.173-2.273-.993-3.094.18-.818-1.623-1.332-2.074-1.386-.462-.06-1.576 1.094-1.77 1.647-.194.553-4.278-.753-3.79-3.204.473-2.446 2.41-4.98 2.89-5.283.48-.296 3.105-.446 3.687-.114.584.338 1.106-.006 1.204-.156.097-.15 2.24.025 2.884.287.636.26 1.555 2.732 2.213 3.035.67.31.91-1.596 1.012-2.058.115-.464-.32-1.64-.478-1.974-.164-.33 1.06-3.326 2.07-3.837.992-.514 2.05-2.18 1.967-2.475-.086-.294.8-.526 1.04-.653.24-.118-.038-2.545.36-3.075.396-.522 2.268-1.633 2.867-1.886.59-.25 1.038-1.78.825-2.046-.216-.274 1.54-1.767 2.45-2.057.91-.277 1.697.526 1.473.65.182-.097 1.438-.747 1.97-1.1.625-.416.006-1.55-.39-1.886-.405-.33-.164-1.644.32-1.767.49-.117.91-1.257.778-1.5-.125-.248 2.008.195 2.817-.408.808-.603.235 1.445-.363 2.27-.586.823.44 1.607.82 1.448.382-.157.79.44.867.67.075.232.898-.24 1.43-.006.544.238.86-.735.904-1.18.037-.452-1.284-1.38-1.498-1.916-.2-.54-.288-3.665-.315-4.31-.032-.64-.89-1.678-1.17-1.492-.276.177-.838-1.664-1.282-2.065-.452-.403-.55-1.287-.534-1.584.02-.298-1.515-1.898-1.882-2.64-.37-.742-.888-.592-.922-.254-.038.342-1.1.387-1.54.346-.44-.04-.8-1.733-.8-2.375 0-.635-1.974-.747-2.302-1.264-.32-.513-1.61-.27-1.815-.628-.208-.357-1.35-.685-1.567-.554-.24.136-.125 4.728-.344 5.966-.223 1.237-1.27 2.325-1.654 2.298-.382-.028-.16.883.11.802.268-.087-.742 1.35-.878 2.294-.13.936-1.088-.044-1.24-.897-.158-.854-1.088-2.008-1.264-1.715-.18.29-.82-.348-1.103-.17-.277.187-2.04-1.022-2.752-1.413-.708-.375-1.11-2.562-1.517-2.755-.413-.195-.066-.457-.08-.79-.012-.33 1.38-1.6 1.8-2.105.42-.505 1.946-2.49 2.55-2.915.61-.433 1.08-1.567.976-1.78-.103-.204 2.588-1.046 3.323-1.3.73-.25 1.36-2.284 1.457-2.87.104-.586-.457-1.696-.795-1.837-.34-.147 1.018-.198 1.47.027.452.222 1.84-.41 2.388-.12.55.29 1.66.95 2.465 1.458l-.18 1.495-.32 2.533c-2.128.884-2.738 2.402-1.994 2.37.743-.035 4.137 1.47 5.096 2.155.957.687 1.26-.994 1.545-1.554.283-.552.19-2.18-.04-2.5-.233-.326 1.113-.21 1.488.152.375.357.816-.375 1.11-.503.283-.13.43-1.52.587-1.8.153-.286-.636-.568-.658-.914-.028-.358-1.55-1.018-2.044-1.253-.503-.237-.62-1.29-.372-1.47.247-.188-.168-1.526-.412-1.966-.24-.44-1.834-.803-2.367-.803-.527 0-1.077-1.23-1.387-1.41-.304-.176-2.348-.4-2.85-.25-.505.147-1.437-1.454-2.285-.965-.854.488-1.736-.57-2.123-.782-.385-.21-2.388 1.935-2.366 3.442.022 1.512.778 2.968 1.087 3.01.316.042-.07 1.406-.42 1.797-.34.384-1.184-.414-.863-.756.316-.34-.87-1.92-1.28-2.562-.287-.466-1.325-.874-2.034-1.158-.413.447-.81.904-1.214 1.36.16.552.344 1.265.165 1.804-.3.92-1.067 1.058-1.11.66-.02-.175-.412-.308-.87-.37-.413.5-.817 1.012-1.224 1.523-.396.5-.795 1-1.186 1.51a74.22 74.22 0 0 0-1.23 1.65c-.365.495-.717 1-1.073 1.502-.526.75-1.043 1.507-1.55 2.272a84.15 84.15 0 0 0-1.42 2.217c-.397.643-.778 1.295-1.157 1.948-.257.448-.518.898-.778 1.35a97.94 97.94 0 0 0-1.122 2.063c-.205.394-.407.792-.61 1.188a86.64 86.64 0 0 0-2.36 4.974c-.023.048-.05.094-.065.14-.365.83-.702 1.673-1.04 2.517a89.674 89.674 0 0 0-1.35 3.572c-.054.145-.097.293-.15.44a90.316 90.316 0 0 0-2.612 9.014l-.148.613a92.83 92.83 0 0 0-1.67 9.69c0 .026-.006.048-.01.07.446.51.952 1.112 1.083 1.544.253.808 1.664 1.343 1.93 1.51.26.16.355-1.552.162-1.998-.178-.446.345-.713.332-.387-.01.33 1.327 1.835 1.763 2.385.44.54.898 4.063 1.316 4.818.427.758 4.485 2.324 5.797 2.596 1.31.28 2.957 1.74 3.215 2.16.257.423 1.99.638 2.366.805.376.173 1.27 1.35 1.64 1.596.362.25.656.948.656 1.137 0 .186 2.297 1.053 2.857 1.666.555.614 1.476.448 1.65.188.175-.256.625 1.22.864 1.73.228.514.29 1.768.11 1.967-.18.196-.513 2.508-.9 2.967-.396.465-1.206 3.82-1.032 4.48.18.666 1.257 2.033 1.725 2.238.463.202.26.92-.104.97-.364.044-.195 3.25.67 3.723.864.472 1.582 1.893 1.464 2.137" fill="#fff"/><path d="M271.865 234.75l-.005.003.005-.002zM265.55 195.818c1.104-.186 2.942-.49 3.07-.802.09-.254.102-1.012-.104-1.28.172.014.38.02.532.02.42 0 1.122-2.3 1.563-2.835.447-.535 2.97-1.33 3.567-1.693.606-.366 1.923-1.632 2.43-1.78.504-.15 1.245-1.33 1.13-1.57-.11-.236 1.714-1.342 2.405-1.635.69-.292 1.05-1.105.79-1.137-.164-.02-4.023 1.993-7.554 4l-.097.072a95.315 95.315 0 0 0-2.99 2.124c-.666.497-1.317 1.01-1.97 1.523a71.443 71.443 0 0 0-3.336 2.738c-.157.136-.323.276-.48.415-.837.736-1.668 1.482-2.486 2.246 1.105-.08 2.81-.28 3.532-.402M323.965 240.894c-.43-.018-.446 1.305.012 1.448.332.1.744-.74 1.137-1.296v-5.142c-.04-.036-.074-.08-.103-.114-.543-.55-.462-.562.104-.137v-31.58c-.468.434-.926.846-1.213 1.072-.755.594-2.073 3.163-2.496 3.777a1.764 1.764 0 0 1-1.306.74c-.25.01-.457.698-.457.948 0 .253-2.236 1.417-2.465 2.43-.238 1.012.218 3.33.218 4.154 0 .822.828 2.456 1.447 2.482.615.028.293 1.4.132 1.78-.16.39.39.81.375 1.138-.017.326-1.567.785-2.046.97-.483.177-1.256 1.262-1.36 1.665-.087.35-1.577.598-2.067 1.07.12-.34.288-.81.424-1.075.283-.543-.108-1.487-.342-1.68-.234-.195-.348-2.88-.724-3.455-.373-.58-1.316-1.55-1.543-1.742-.235-.186.157-.892.294-1.195.135-.296-1.252-.47-1.63-.247-.383.22-.584 2.876-.747 3.604-.153.726.684 1.843.92 1.896.222.054.163 1.36-.322 1.404-.49.048-.934 1.96-.685 2.394.25.438-.347 1.292-.637 1.49-.286.195 1.867.083 2.858.06.98-.03 1.75.413 1.648.494-.103.082-1.883.344-2.204.766-.315.423-1.524 1.233-1.758 1.56-.234.32.398 1.04.91 1.005.51-.03 1.093 1.77 1.495 2.1.392.335.25 1.267.077 1.526-.18.25-2.585-.174-3.493.05-.918.226-2.072 2.16-2.15 2.888-.084.73.144 2.825.268 3.405.114.574 2.03.94 2.41 1.222.398.28 2.225.01 2.613.185.37.18 1.61-1.855 1.856-2.796.233-.95 2.187-2.68 2.594-3.327.408-.64 2.508-.564 3.025-.902.518-.33.23 1.597.48 2.655.245 1.065 2.256.93 1.964-.068-.294-.99.2-1.425.276-1.063.088.355 2.018 1.146 2.39 1.705.362.562.258 1.748-.17 1.734" fill="#fff"/><path d="M325.114 247.14c-.4-.208-.767-.393-1.053-.512-1.184-.503-2.118-2.313-2.357-2.548-.252-.24.2-.822.086-1.182-.115-.36-2.824-.434-3.614-.14-.79.29-4.852.72-5.818 1.142-.96.43-2.414-.03-2.86-.107-.45-.078-1.528 1.25-2.073 1.49-.554.24-1.24 2.12-1.54 4.187l-.74 1.44-.477.92c-1.344 1.022-2.83 4.43-3.27 5.114-.43.683-.784 5.593-.784 7.242 0 1.65 1.442 5.148 1.85 6.112.41.962 2.9 3.098 3.726 3.607.833.502 3.535.57 4.43.568.88-.005 1.893-.845 2.236-1.87l1.3.13.6.058c.025.73 1.946 1.312 2.42 1.567.462.257 1.73.06 2.105-.05.376-.106.802 3.283.522 4.265-.27.976.67 4.416.944 5.448.28 1.038 1.455 3.866 1.576 4.885.113 1.015-.69 4.392-.826 5.574-.13 1.185 1.472 4.493 1.897 5.628.418 1.14.768 3.586.768 4.152 0 .29.452 1.315.954 2.436V247.14z" fill="#fff"/><path d="M409.772 198.15l-59.926-8.745c-7.26-1.06-14.004 3.975-15.06 11.223L313.86 344c-1.058 7.254 3.968 13.997 11.227 15.056l59.924 8.745c7.256 1.06 13.997-3.966 15.055-11.22L420.99 213.21c1.057-7.248-3.965-14-11.22-15.058" fill="#0e303f"/><path d="M367.024 202.27l22.592 3.298a1.17 1.17 0 1 1-.338 2.312l-22.59-3.297a1.16 1.16 0 0 1-.974-1.322 1.162 1.162 0 0 1 1.31-.99M356.46 353.75c-4.2-.614-7.105-4.522-6.493-8.72a7.68 7.68 0 0 1 8.712-6.492 7.676 7.676 0 0 1 6.495 8.712 7.686 7.686 0 0 1-8.716 6.5" fill="#fff"/><path d="M322.556 324.79l74.68 10.897L413.38 225.05l-74.68-10.897-16.144 110.636z" fill="#2898cd"/><path d="M322.556 324.79l74.68 10.897L413.38 225.05l-90.824 99.74z" fill="#2078a2"/><path d="M358.34 340.865a5.337 5.337 0 0 0-6.045 4.505 5.336 5.336 0 0 0 4.504 6.05 5.33 5.33 0 0 0 6.044-4.51 5.33 5.33 0 0 0-4.505-6.045" fill="#0e303f"/><path d="M277.878 328.17h1.27c.22-1.374-1.34-1.145-1.27 0M303.45 201.94c.647.256 1.876-.64 1.408-.983-.48-.34-.228-.332 0-.188.23.14.468-1.138.224-1.38-.252-.246 1.89-1.81 1.517-3.29-.378-1.477.58-2.998 1.157-3.014.583-.02.415-1.673-.282-1.827-.686-.15-.04-.303.224-.54.248-.236.58-1.712.428-1.995-.155-.287 1.054-.602 1.26-.94.224-.334 1.602-.995 2.09-1.106.486-.114.758-1.41.23-1.352-.535.066-1.91-.207-2.15-.462-.234-.253-2.295-.476-2.894-.226-.592.252-.185-1.45.642-1.635.828-.185.124-1.357-.757-1.36-.88-.007-3.058-.328-3.57-.214-.515.112-1.51-.355-1.877-.408-.363-.052-2.98.783-4.215.72-1.24-.054-4.276.07-4.93.255-.668.172-1.143 1.462-1.045 1.916.094.46-2.943.452-3.894.464-.96.013-6.047 1.097-7.38 1.83-1.326.726-2.366 2.596-1.925 2.635.44.034-.74 1.094-1.448 1.34-.716.245-2.426.354-2.823.758-.404.396.425.673.582.943.157.266.638-.233 1.09.025.444.25 1.93.374 2.32.524.4.155-1.255.47-2.034.527-.778.053-.603 1.58.028 1.79.636.212 2.27.44 2.437.173.164-.265 1.937.29 2.736.383.795.086 1.406 2.085 1.65 2.522.244.43.294 1.953.233 2.393-.054.442 1.414 1.245 1.675.966.264-.28.19.69-.396.638-.587-.05-.2 1.64.524 1.887.717.24.223 1.282-.192 1.6-.42.312-.19 1.308-.62 1.668-.423.352 1.52 3.72 1.508 5.45-.012 1.73 1.067 3.145 1.48 3.145.412 0 1.84.348 2.024.72.185.37.875-.257 1.148-.544.26-.28.84-1.115 1.283-1.847.433-.734 1.413-4.207 1.545-4.58.13-.373 1.762-.14 2.132-.33.37-.19 1.436-1.028 1.743-1.282.297-.25 2.627-1.23 3.263-1.692.63-.455 1.69-2.427 2.187-2.85.49-.417-.257-.292-.876-.7-.615-.403-.344-.902-.164-1.09.175-.192 2.05.31 2.7.562M323.73 186.538c-.657-.223-1.99.504-1.82.915.175.42-1.09-.526-1.965-.076-.875.462-1.12 2-.72 2.2.41.2.698 1.424.71 1.66.017.238 1.707.067 2.143-.288.43-.358.37 1.238-.054 1.67-.43.433.152 1.297.625 1.368.474.068 1.107 1.18 1.596 1.167.243-.008.575-.482.87-1.04v-5.65l-.012-.003c-.378-.055-.726-1.703-1.373-1.924M307.752 225.097c.513-.086.91-.5.887-.926-.023-.42-.75-2.34-1.038-2.34-.29 0-.84 1.41-1.188 1.273-.342-.143-.533 1.144-.45 1.633.075.49 1.277.448 1.788.36M305.913 210.85c.175.507.823.838 1.442.74.616-.103 1.844-.74 2.28-.78.43-.046.91-2.22.64-2.69-.27-.472-2.31-.417-2.81-.447-.496-.025-2.025-.537-2.314-.862-.286-.32-.51 1.26-.973 1.465-.474.205.224.508.42.34.19-.17-.01.81-.224 1.148-.212.34 1.36.574 1.54 1.086M260.387 210.89c-.32.295-.043 1.79.57 1.834.61.043 1.583-2.256 2.335-1.795.746.462 1.25.642 1.13.398-.13-.242-2.256-1.176-2.517-1.345-.266-.16-1.192.614-1.518.907M268.19 261.538c0 .252 1.327.218 1.55-.192.207-.405.098-.737-.262-.737-.353 0-1.288.67-1.288.928M262.27 259.35c.636-.118.337.91.49 1.276.152.376 1.68.668 1.986.92.303.248 1.092-.468 1.703-.39.607.076-.202-2.113-1.226-2.05-1.022.067-1.834-.927-2.073-1.047-.25-.112-1.43-.83-1.774-1.106-.332-.273-2.936-.504-3.824-.504-.886 0-1.86.905-1.995 1.196-.14.302 1.402.502 1.837.267.447-.23 2.51.26 2.934.758.424.494 1.3.803 1.942.68M259.485 261.538c0 .252 1.343.097 1.664.106.324.005.315-.217-.022-.488-.338-.273-1.643.125-1.643.382M260.437 254.63c-.35-.14-.632.41-.632.668 0 .258.192.47.43.47.234 0 .55-.997.202-1.138M263.248 254.845c-.114-.26-.69-.468-.864-.468-.176 0-.293.447-.263.983.03.544 1.243-.26 1.128-.515M265.278 257.963c.538-.26.608-.91.288-.874-.326.032-.92-.936-1.274-1.072-.348-.14-.63.577-.63.892 0 .32.195.532.432.47.242-.06.633.836 1.183.583" fill="#fff"/><path d="M268.62 193.943c-.094-.095-.48.186-.306.356.08.114.456-.163.305-.357M278.847 224.416c-.077-.11-.47.182-.32.36.096.106.49-.178.32-.36" fill="#c1e2de"/><path d="M333.298 226.552H110.11a5.84 5.84 0 0 0-5.843 5.85v135.995a5.84 5.84 0 0 0 5.843 5.838h223.188c3.235 0 5.857-2.62 5.857-5.838V232.402a5.853 5.853 0 0 0-5.857-5.85" fill="#174f78"/><path fill="#103754" d="M118.81 240.624h205.804v119.232H118.81z"/><path d="M360.804 370.898h-96.27c-.203 1.97-1.806 3.522-3.824 3.522h-77.997c-2.023 0-3.627-1.55-3.83-3.522h-96.27c-.057.477-.144.93-.144 1.408v4.216c0 6.982 5.672 12.666 12.663 12.666h253.16c6.993 0 12.657-5.684 12.657-12.666v-4.216c0-.478-.078-.93-.146-1.408" fill="#fff"/><path d="M83.48 381.478c1.932 4.525 6.426 7.71 11.653 7.71h253.16c5.234 0 9.72-3.185 11.65-7.71H83.48z" fill="#c1e2de"/><path fill="#f3ac1d" d="M135.482 269.53h63.756v3.577h-63.756z"/><path fill="#6bb8d6" d="M205.02 269.53h14.454v3.577H205.02z"/><path fill="#de3f18" d="M135.482 255.773h42.555v3.575h-42.555z"/><path fill="#c1e2de" d="M173.217 283.293H307.17v3.576H173.218z"/><path fill="#f3ac1d" d="M135.482 283.293h30.99v3.576h-30.99z"/><path fill="#c1e2de" d="M149.124 297.05h108.172v3.577H149.124z"/><path fill="#de3f18" d="M263.175 297.05h18.545v3.577h-18.545z"/><path fill="#f3ac1d" d="M149.124 310.81h20.75v3.575h-20.75zM149.124 324.57h20.75v3.577h-20.75z"/><path fill="#b1be46" d="M175.758 310.81h113.03v3.575h-113.03zM175.757 324.57h59.164v3.577h-59.163z"/><path fill="#6bb8d6" d="M239.337 324.57h59.16v3.577h-59.16zM175.144 338.33h78.385v3.576h-78.386z"/><path fill="#f3ac1d" d="M135.482 338.33h34.844v3.576h-34.844z"/><path fill="#de3f18" d="M260.733 338.33h10.96v3.576h-10.96z"/><path d="M143.922 311.24l14.187-11.59 14.184-11.595-17.717-4.66-17.717-4.663 6.713 11.594-12.857 2.792 1.648 7.58 12.854-2.794-1.296 13.337z" fill="#c1e2de"/><path d="M158.11 299.65l14.185-11.595-.59-.153-40.223 8.734.882 4.06 12.854-2.792-1.297 13.337 14.188-11.59zM114.438 113.64a1 1 0 0 1-.18-1.984c2.57-.476 4.955-.758 7.087-.84.55-.045 1.018.407 1.038.96a1 1 0 0 1-.96 1.037c-2.037.08-4.325.35-6.802.81a.952.952 0 0 1-.182.016m19.648 3.532a.994.994 0 0 1-.81-.412c-1.15-1.584-2.905-2.707-5.216-3.338a1 1 0 0 1 .527-1.93c2.76.754 4.883 2.13 6.307 4.092a1 1 0 0 1-.808 1.588m-31.844 2.488a1 1 0 0 1-.84-1.54c1.23-1.925 3.218-3.472 5.902-4.598a1 1 0 1 1 .774 1.844c-2.303.966-3.983 2.255-4.994 3.833a1 1 0 0 1-.842.46m33.042 11.045a1 1 0 0 1-.976-1.222c.513-2.25.774-4.302.774-6.1 0-.195-.003-.39-.01-.58a.997.997 0 0 1 .966-1.032c.558-.052 1.015.414 1.033.966.01.214.012.428.012.647 0 1.947-.278 4.15-.825 6.545a1 1 0 0 1-.973.777m-31.693 2.183c-.345 0-.682-.18-.867-.502-1.378-2.4-2.26-4.698-2.62-6.826a.998.998 0 0 1 .816-1.153 1 1 0 0 1 1.154.817c.322 1.895 1.124 3.97 2.384 6.166a1 1 0 0 1-.867 1.498m8.93 10.728a.997.997 0 0 1-.676-.264 58.082 58.082 0 0 1-4.953-5.123 1 1 0 0 1 1.527-1.296 55.596 55.596 0 0 0 4.78 4.945 1 1 0 0 1-.676 1.736m18.046.257a1 1 0 0 1-.908-1.416 90.83 90.83 0 0 0 2.655-6.398 1 1 0 1 1 1.877.69 92.78 92.78 0 0 1-2.713 6.54.998.998 0 0 1-.91.583m102.74 7.077c-.045 0-.09-.003-.135-.01a65.794 65.794 0 0 0-6.864-.547 1.002 1.002 0 0 1-.972-1.028c.017-.553.467-.974 1.03-.972 2.417.07 4.797.26 7.073.565a1 1 0 0 1-.132 1.992m-20.937.13a1 1 0 0 1-.11-1.993 121.23 121.23 0 0 1 7.03-.596 1 1 0 1 1 .107 1.998c-2.175.117-4.436.308-6.915.588a1.4 1.4 0 0 1-.112.005m-88.65.923a1 1 0 0 1-.518-.145 75.21 75.21 0 0 1-5.882-3.975 1 1 0 1 1 1.197-1.6 73.49 73.49 0 0 0 5.724 3.866 1 1 0 0 1-.522 1.853m74.805 1.127a1 1 0 0 1-.168-1.985 347.77 347.77 0 0 1 6.928-1.126 1.01 1.01 0 0 1 1.138.84 1 1 0 0 1-.838 1.137c-2.038.307-4.29.673-6.89 1.12-.056.008-.113.013-.17.013m48.303 1.28c-.12 0-.24-.023-.36-.068a58.688 58.688 0 0 0-6.545-2.094 1 1 0 0 1-.72-1.215.996.996 0 0 1 1.217-.722 60.788 60.788 0 0 1 6.767 2.165 1 1 0 0 1-.36 1.934m-62.084 1.16c-.477 0-.9-.343-.985-.828a1.003 1.003 0 0 1 .813-1.16c2.08-.364 4.108-.726 6.09-1.08l.8-.143a1 1 0 0 1 .35 1.968l-.798.142c-1.983.355-4.013.718-6.096 1.084a1.04 1.04 0 0 1-.174.015m-60.622.738a.998.998 0 0 1-.867-1.496c1.195-2.094 2.32-4.15 3.344-6.113a1 1 0 0 1 1.774.924 186.08 186.08 0 0 1-3.383 6.18 1 1 0 0 1-.87.504m46.812 1.532a1 1 0 0 1-.148-1.99c2.362-.354 4.66-.72 6.898-1.09a1 1 0 1 1 .326 1.973c-2.248.373-4.555.74-6.927 1.096-.05.006-.102.01-.15.01m-34.578.163a.98.98 0 0 1-.322-.053 60.683 60.683 0 0 1-6.587-2.703 1 1 0 0 1 .863-1.804 58.8 58.8 0 0 0 6.368 2.614 1 1 0 0 1-.322 1.946m20.7 1.658a1 1 0 0 1-.11-1.993c2.254-.25 4.585-.533 6.928-.84a1 1 0 1 1 .26 1.982c-2.356.31-4.7.595-6.967.847a1.06 1.06 0 0 1-.112.005m-7.963.677c-1.95 0-4.017-.192-6.144-.573a1 1 0 0 1 .35-1.97c2.365.423 4.61.597 6.756.526.513-.037 1.014.41 1.034.964a1 1 0 0 1-.964 1.034 32.14 32.14 0 0 1-1.033.02m110.182.406a.99.99 0 0 1-.534-.154 77.28 77.28 0 0 0-5.99-3.43 1 1 0 1 1 .912-1.78 78.768 78.768 0 0 1 6.146 3.52 1 1 0 0 1-.535 1.844m-142.445 7.526a1 1 0 0 1-.84-1.54c1.3-2.02 2.55-4.01 3.715-5.917a1 1 0 0 1 1.707 1.043 303.897 303.897 0 0 1-3.74 5.955 1 1 0 0 1-.842.46m153.703.762a.997.997 0 0 1-.64-.233 117.72 117.72 0 0 0-5.448-4.292 1.002 1.002 0 0 1 1.19-1.61 119.33 119.33 0 0 1 5.54 4.366 1 1 0 0 1-.642 1.768m10.315 9.446a.997.997 0 0 1-.704-.29 185.12 185.12 0 0 0-5.03-4.81 1 1 0 0 1 1.352-1.47c1.67 1.533 3.38 3.17 5.085 4.86a1 1 0 0 1-.704 1.71M109.01 179.9a1.002 1.002 0 0 1-.818-1.573 394.835 394.835 0 0 0 3.95-5.764 1 1 0 1 1 1.66 1.115c-1.32 1.964-2.648 3.9-3.97 5.794a1.002 1.002 0 0 1-.82.428m181.463 8.726a.994.994 0 0 1-.743-.33c-1.58-1.758-3.17-3.48-4.727-5.124a1 1 0 0 1 1.454-1.375 282.304 282.304 0 0 1 4.758 5.16 1 1 0 0 1-.743 1.67m-189.644 2.65a.998.998 0 0 1-.803-1.595 546.503 546.503 0 0 0 4.123-5.65 1 1 0 1 1 1.623 1.168 522.125 522.125 0 0 1-4.138 5.67.998.998 0 0 1-.804.407m198.788 7.944a1 1 0 0 1-.77-.36 378.927 378.927 0 0 0-4.508-5.328 1 1 0 0 1 1.516-1.305 409.36 409.36 0 0 1 4.53 5.354 1.003 1.003 0 0 1-.13 1.41c-.187.155-.414.23-.638.23m-207.164 3.283a1 1 0 0 1-.813-1.58 174.356 174.356 0 0 1 3.18-4.308l1.014-1.333a1 1 0 0 1 1.594 1.21l-1.016 1.335c-1.08 1.42-2.14 2.85-3.144 4.257a.996.996 0 0 1-.814.42m-7.58 11.76a1 1 0 0 1-.867-1.496 130.942 130.942 0 0 1 3.67-6.023 1 1 0 1 1 1.68 1.086 128.288 128.288 0 0 0-3.612 5.93 1 1 0 0 1-.87.505m-6.093 12.587a1 1 0 0 1-.93-1.365 89.547 89.547 0 0 1 2.852-6.475 1 1 0 0 1 1.798.875 88.536 88.536 0 0 0-2.79 6.33.998.998 0 0 1-.93.635M74.996 240.3a1 1 0 0 1-.99-1.16 61.4 61.4 0 0 1 1.56-6.938c.153-.532.712-.833 1.237-.687a1 1 0 0 1 .688 1.236 58.763 58.763 0 0 0-1.508 6.71 1 1 0 0 1-.986.84m-.22 13.935a1 1 0 0 1-.988-.857 43.44 43.44 0 0 1-.435-7.135c.01-.552.477-.98 1.02-.98a1 1 0 0 1 .98 1.02 41.485 41.485 0 0 0 .413 6.81 1 1 0 0 1-.99 1.142m4.416 13.192a1 1 0 0 1-.878-.518 40.224 40.224 0 0 1-2.875-6.564 1 1 0 0 1 1.895-.635 38.034 38.034 0 0 0 2.733 6.236 1 1 0 0 1-.876 1.48m8.597 10.96a1 1 0 0 1-.688-.272 49.465 49.465 0 0 1-4.828-5.254 1 1 0 0 1 1.568-1.24 47.303 47.303 0 0 0 4.633 5.04 1 1 0 0 1-.686 1.727m11.227 8.31a.988.988 0 0 1-.505-.137 68.764 68.764 0 0 1-5.936-3.897.998.998 0 1 1 1.183-1.61 67.367 67.367 0 0 0 5.764 3.782 1 1 0 0 1-.507 1.863m12.622 6.02c-.12 0-.242-.02-.36-.065a93.74 93.74 0 0 1-6.5-2.785 1 1 0 0 1 .856-1.806 91.828 91.828 0 0 0 6.363 2.723 1.002 1.002 0 0 1-.36 1.934M125 296.89a.99.99 0 0 1-.24-.03c-2.31-.57-4.602-1.205-6.807-1.89a1 1 0 0 1 .593-1.91c2.167.673 4.42 1.3 6.693 1.858a1 1 0 0 1-.238 1.97M123.208 200.023a3.27 3.27 0 0 0-3.267 3.267 3.27 3.27 0 0 0 3.268 3.266 3.27 3.27 0 0 0 3.267-3.266 3.27 3.27 0 0 0-3.267-3.267m0 8a4.738 4.738 0 0 1-4.733-4.733 4.738 4.738 0 0 1 4.733-4.734 4.738 4.738 0 0 1 4.733 4.734 4.738 4.738 0 0 1-4.732 4.733m-4.5 2.87c.29 0 .57.064.81.184l.84.344c.687.232 1.24 1 1.24 1.77v1.962c0 .053.042.095.092.095h3.035a.1.1 0 0 0 .097-.095v-1.96c0-.77.55-1.54 1.28-1.787l.84-.35c.197-.098.476-.16.764-.16.517 0 1.025.2 1.362.538l1.388 1.385h.132l2.147-2.146v-.13l-1.387-1.39c-.546-.55-.698-1.483-.353-2.172l.346-.84c.225-.685.993-1.24 1.768-1.24h1.964c.05 0 .093-.043.093-.093v-3.034a.096.096 0 0 0-.093-.095h-1.964c-.775 0-1.544-.553-1.786-1.287l-.348-.836c-.323-.643-.17-1.576.372-2.123l1.39-1.39h-.002v-.13l-2.146-2.15-.65-.517.52.518-1.39 1.39c-.525.524-1.5.687-2.172.354l-.84-.348c-.68-.224-1.234-.99-1.234-1.766v-1.963c0-.05-.047-.094-.097-.094h-3.035a.095.095 0 0 0-.09.094v1.963c0 .776-.557 1.543-1.293 1.785l-.835.35a1.76 1.76 0 0 1-.764.162c-.518 0-1.025-.2-1.36-.54l-1.387-1.386v.002h-.133l-2.147 2.148v.13l1.39 1.39c.545.547.697 1.48.35 2.172l-.34.837c-.23.686-.997 1.238-1.77 1.238h-1.965c-.048 0-.092.045-.092.095v3.034c0 .05.044.093.092.093h1.965c.772 0 1.54.553 1.786 1.286l.347.844c.324.64.173 1.573-.373 2.12l-1.39 1.39v.132l2.147 2.147.652.517-.52-.518 1.39-1.388c.332-.336.84-.538 1.36-.538m6.015 5.82h-3.035c-.86 0-1.558-.7-1.558-1.562v-1.96c0-.144-.152-.352-.29-.398l-.932-.383c-.167-.08-.437-.03-.522.057l-1.39 1.39c-.59.588-1.622.586-2.21-.003l-2.145-2.144a1.55 1.55 0 0 1-.456-1.105c0-.42.163-.81.458-1.103l1.387-1.387c.098-.1.14-.354.077-.478l-.388-.94c-.06-.175-.276-.33-.412-.33h-1.965c-.86 0-1.56-.7-1.56-1.56v-3.034c0-.86.7-1.562 1.56-1.562h1.965c.14 0 .35-.15.395-.282l.38-.932c.087-.175.045-.43-.054-.53l-1.387-1.388a1.547 1.547 0 0 1-.456-1.103c0-.42.163-.81.458-1.104l2.145-2.146c.584-.585 1.62-.588 2.207 0l1.39 1.39c.086.087.43.1.475.077l.934-.39c.184-.06.336-.27.336-.41v-1.963c0-.86.7-1.56 1.558-1.56h3.035c.862 0 1.564.7 1.564 1.56v1.963c0 .14.148.35.28.393l.935.387c.267.127.448.02.525-.057l1.39-1.39c.59-.588 1.625-.587 2.208.004l2.144 2.146c.294.29.457.683.457 1.102 0 .42-.164.812-.46 1.105l-1.385 1.386c-.098.1-.14.356-.077.48l.388.934c.062.182.272.33.412.33h1.964c.86 0 1.56.702 1.56 1.563v3.034c0 .86-.7 1.56-1.56 1.56h-1.964c-.14 0-.35.15-.393.283l-.386.938c-.085.172-.043.428.057.53l1.385 1.385c.293.29.457.683.457 1.102 0 .42-.164.813-.46 1.106l-2.145 2.146c-.577.585-1.615.588-2.204 0l-1.39-1.386c-.08-.08-.357-.14-.482-.08l-.93.387c-.18.062-.33.27-.33.414v1.962c0 .86-.7 1.56-1.563 1.56" fill="#fff"/></g></svg>