<svg viewBox="0 0 72 72" xmlns="http://www.w3.org/2000/svg" fill-rule="evenodd" clip-rule="evenodd" stroke-linejoin="round" stroke-miterlimit="1.414"><g fill-rule="nonzero"><path d="M71 36c0 19.33-15.67 35-35 35S1 55.33 1 36 16.67 1 36 1s35 15.67 35 35" fill="#26afc7"/><path d="M69.757 45.245L64 39.487 48.323 23.812 34.636 37.5l.675.675-12.483 12.482L36.17 64h1.775l-.888.888 5.492 5.49c13.163-2.49 23.714-12.352 27.207-25.133" fill="#1f918c"/><path d="M53.544 39.72c-1.132 9.68-9.896 16.61-19.576 15.477-9.68-1.13-16.61-9.896-15.478-19.576 1.13-9.678 9.895-16.608 19.575-15.476 9.68 1.13 16.61 9.895 15.48 19.575" fill="#5ebed8"/><path d="M53.544 39.72c-1.132 9.68-9.896 16.61-19.576 15.477-9.68-1.13-16.61-9.896-15.478-19.576 1.13-9.678 9.895-16.608 19.575-15.476 9.68 1.13 16.61 9.895 15.48 19.575" fill="#4974a2"/><path d="M30.044 21.844c-8.73 3.284-13.162 13.06-9.878 21.79 3.285 8.73 13.06 13.16 21.79 9.88 8.73-3.287 13.16-13.063 9.877-21.792-3.284-8.73-13.06-13.16-21.79-9.878M42.58 55.167c-9.643 3.627-20.44-1.267-24.068-10.91s1.267-20.44 10.91-24.068c9.643-3.627 20.44 1.266 24.066 10.91 3.628 9.643-1.265 20.44-10.91 24.067" fill="#fff"/><path d="M34.9 21.042c-2.837 1.064-5.694 7.568-5.57 16.603.065 4.575.882 8.85 2.306 12.04 1.3 2.913 2.97 4.57 4.587 4.547.286-.004.577-.06.86-.168 2.836-1.066 5.693-7.568 5.57-16.604-.066-4.574-.885-8.85-2.307-12.04-1.3-2.91-2.97-4.568-4.585-4.547-.287.005-.578.062-.86.17m2.807 34.678a4.323 4.323 0 0 1-1.46.28c-2.392.033-4.603-1.953-6.226-5.594C28.504 47 27.63 42.478 27.564 37.67c-.126-9.084 2.697-16.774 6.713-18.284.476-.18.967-.274 1.46-.28 2.39-.035 4.6 1.954 6.225 5.594 1.52 3.404 2.392 7.927 2.46 12.736.125 9.084-2.698 16.774-6.713 18.285" fill="#fff"/><path d="M53.153 38.08l-34.302.477-.023-1.767 34.302-.476.023 1.767zM50.836 28.33l-29.94.413-.024-1.768 29.94-.415.024 1.77zM51.108 47.896l-29.94.413-.026-1.768 29.94-.414.026 1.768z" fill="#fff"/><path d="M31.633 40.334L44.46 53.16a17.668 17.668 0 0 0 8.02-9.13l-20.847-3.696z" fill="#445d6c"/><path d="M42.425 42.247a31.727 31.727 0 0 1-.697 4.01l-4.115.057 1.745 1.744 1.866-.027c-.16.49-.33.95-.508 1.388l1.35 1.35c.38-.843.72-1.767 1.016-2.76l8.027-.113-.028-1.767-7.534.104a33.69 33.69 0 0 0 .62-3.675l-1.743-.31z" fill="#e8dede"/><path d="M51.724 43.897a16.896 16.896 0 0 1-7.803 8.725l1.306 1.305a18.68 18.68 0 0 0 8.267-9.717l-1.77-.313z" fill="#e8dede"/></g></svg>