<svg viewBox="0 0 72 72" xmlns="http://www.w3.org/2000/svg" fill-rule="evenodd" clip-rule="evenodd" stroke-linejoin="round" stroke-miterlimit="1.414"><g fill-rule="nonzero"><path d="M71 36c0 19.33-15.67 35-35 35S1 55.33 1 36 16.67 1 36 1s35 15.67 35 35" fill="#2fb99a"/><path d="M71 36c0-.85-.04-1.69-.102-2.523L53.284 15.81l-.005.006-3.717-3.728-30.923 44.43 14.215 14.335c1.037.09 2.084.147 3.145.147 19.33 0 35-15.67 35-35" fill="#259b70"/><path d="M51.05 17.59c.055-.35.092-.703.092-1.068a7.02 7.02 0 0 0-7.017-7.017 7.017 7.017 0 0 0-6.424 4.2 4.244 4.244 0 0 0-2.93-1.173 4.265 4.265 0 0 0-4.18 5.11c-2.167.88-3.7 3-3.7 5.483a5.915 5.915 0 0 0 5.917 5.916h16.09v-.003c.027 0 .053.004.08.004a5.912 5.912 0 0 0 2.075-11.45" fill="#f6f4b8"/><path d="M34.22 29.04h11.943l-5.97-5.972-5.974 5.973z" fill="#dfdc9f"/><path fill="#fff" d="M41.152 45.393h.05v9.355h-.05z"/><path d="M19.35 22.947h19.82c1.095 0 1.982.888 1.982 1.982v29.604a1.982 1.982 0 0 1-1.982 1.983H19.35a1.983 1.983 0 0 1-1.982-1.983V24.93c0-1.095.887-1.983 1.983-1.983" fill="#fff"/><path fill="#f6b449" d="M19.144 25.705h20.28v23.98h-20.28z"/><path d="M19.144 46.145l20.28-20.28v-.158h-20.28v20.438z" fill="#e68d2a"/><path d="M26.195 24.348c0 .222.18.4.4.4h5.377a.4.4 0 0 0 .4-.4v-.143a.4.4 0 0 0-.4-.4h-5.376a.4.4 0 0 0-.4.4v.143z" fill="#d6d4d8"/><path d="M26.596 23.822a.384.384 0 0 0-.383.383v.142c0 .21.172.383.383.383h5.376a.384.384 0 0 0 .383-.383v-.142c0-.21-.17-.383-.383-.383h-5.376zm-.42.525v-.142a.42.42 0 0 1 .42-.418h5.376c.23 0 .42.187.42.418v.142a.42.42 0 0 1-.42.418h-5.376a.42.42 0 0 1-.42-.418" fill="#d6d4d8"/><path d="M27.732 53.962c0 .405.33.734.733.734h1.638c.406 0 .734-.33.734-.734v-1.637a.733.733 0 0 0-.734-.733h-1.638a.733.733 0 0 0-.733.733v1.637z" fill="#4974a2"/><path d="M28.465 51.608a.717.717 0 0 0-.716.717v1.637c0 .395.32.716.715.716h1.638c.394 0 .716-.32.716-.716v-1.637a.718.718 0 0 0-.717-.717h-1.638zm-.75 2.354v-1.637a.75.75 0 0 1 .75-.752h1.638c.414 0 .75.337.75.752v1.637c0 .414-.336.75-.75.75h-1.638a.75.75 0 0 1-.75-.75" fill="#4974a2"/></g></svg>