<svg viewBox="0 0 500 500" xmlns="http://www.w3.org/2000/svg" fill-rule="evenodd" clip-rule="evenodd" stroke-linejoin="round" stroke-miterlimit="1.414"><g fill-rule="nonzero"><path d="M161.755 239.46c-13.703 0-24.808-11.11-24.808-24.808 0-13.702 11.105-24.81 24.808-24.81 13.7 0 24.813 11.108 24.813 24.81 0 13.697-11.112 24.81-24.813 24.81m65.007-36.162h-8.413a58.764 58.764 0 0 0-2.434-8.612l7.032-4.058a3.56 3.56 0 0 0 1.286-4.827l-7.046-12.2a3.557 3.557 0 0 0-4.82-1.29l-7.307 4.22a56.955 56.955 0 0 0-6.394-6.234l4.07-7.044a3.54 3.54 0 0 0-1.297-4.824l-12.202-7.046a3.54 3.54 0 0 0-4.81 1.295l-4.212 7.3a56.527 56.527 0 0 0-8.67-2.194v-8.146a3.543 3.543 0 0 0-3.527-3.524H153.92a3.547 3.547 0 0 0-3.53 3.523v8.423a57.756 57.756 0 0 0-8.598 2.424l-4.05-7.03a3.56 3.56 0 0 0-4.84-1.288l-12.205 7.052a3.518 3.518 0 0 0-1.28 4.804l4.215 7.315a56.263 56.263 0 0 0-6.23 6.39l-7.042-4.07a3.567 3.567 0 0 0-4.824 1.302l-7.057 12.2a3.528 3.528 0 0 0 1.297 4.814l7.295 4.216a57.153 57.153 0 0 0-2.185 8.662h-8.13a3.53 3.53 0 0 0-3.54 3.53v14.09a3.547 3.547 0 0 0 3.53 3.53h8.42c.587 2.953 1.4 5.84 2.422 8.61l-7.032 4.063a3.537 3.537 0 0 0-1.288 4.805l7.045 12.214a3.552 3.552 0 0 0 4.82 1.29l7.304-4.22a57.622 57.622 0 0 0 6.403 6.242l-4.062 7.05a3.512 3.512 0 0 0 1.282 4.812l12.22 7.043a3.51 3.51 0 0 0 4.8-1.282l4.22-7.3a57.588 57.588 0 0 0 8.667 2.185v8.146a3.533 3.533 0 0 0 3.515 3.517l14.1.008h.002a3.54 3.54 0 0 0 3.524-3.523v-8.418c2.95-.598 5.828-1.4 8.612-2.427l4.062 7.025a3.516 3.516 0 0 0 4.81 1.29l12.212-7.05c1.68-.963 2.255-3.125 1.285-4.82l-4.223-7.3a56.618 56.618 0 0 0 6.245-6.394l7.046 4.07a3.55 3.55 0 0 0 4.816-1.295l7.05-12.21c.968-1.68.382-3.84-1.287-4.81l-7.298-4.224a57.732 57.732 0 0 0 2.19-8.65h8.134a3.546 3.546 0 0 0 3.52-3.535v-14.092-.01a3.53 3.53 0 0 0-3.512-3.512h-.007" fill="#de3f18"/><path d="M160.53 251.187c-19.626-.644-35.343-16.753-35.343-36.532 0-19.788 15.717-35.894 35.342-36.537v-32h-6.611a3.547 3.547 0 0 0-3.53 3.524v8.423a57.752 57.752 0 0 0-8.6 2.423l-4.05-7.028a3.562 3.562 0 0 0-4.84-1.29l-12.203 7.054a3.52 3.52 0 0 0-1.28 4.805l4.216 7.314a56.187 56.187 0 0 0-6.23 6.388l-7.043-4.068a3.566 3.566 0 0 0-4.824 1.302l-7.056 12.2a3.53 3.53 0 0 0 1.297 4.814l7.295 4.217a57.116 57.116 0 0 0-2.185 8.66h-8.13a3.532 3.532 0 0 0-3.54 3.53v14.088a3.547 3.547 0 0 0 3.53 3.53h8.42a57.128 57.128 0 0 0 2.422 8.61l-7.033 4.06a3.538 3.538 0 0 0-1.288 4.808l7.045 12.215a3.55 3.55 0 0 0 4.818 1.288l7.305-4.22a57.71 57.71 0 0 0 6.402 6.242l-4.062 7.05a3.512 3.512 0 0 0 1.28 4.812l12.22 7.046c1.68.97 3.836.4 4.8-1.284l4.222-7.3a57.9 57.9 0 0 0 8.666 2.182v8.147a3.533 3.533 0 0 0 3.516 3.517l5.043.006v-31.997h.004zm1.225-72.263v10.92c13.7 0 24.813 11.107 24.813 24.81 0 13.696-11.112 24.81-24.813 24.81v10.916c19.73 0 35.728-16 35.728-35.725 0-19.732-16-35.73-35.73-35.73" fill="#fd6120"/><path d="M391.1 100.242l-2.324 14.155-14.148 2.328 14.148 2.318 2.325 14.153 2.323-14.153 14.153-2.318-14.15-2.328-2.322-14.154h-.003zm-150.793 42.4l-2.76 16.73-16.723 2.753 16.722 2.742 2.76 16.73 2.736-16.73 16.723-2.742-16.723-2.752-2.735-16.728v-.002zM426.87 77.855l-1.213 7.35-7.347 1.208 7.345 1.213 1.21 7.35 1.205-7.35 7.348-1.212-7.35-1.21-1.204-7.347.005-.002zm-16.326 225l-2.01 12.2-12.204 2.01 12.204 1.998 2.01 12.204 1.997-12.204 12.202-1.997-12.2-2.01-1.995-12.2h-.003zm33.17-11.826l-1.036 6.337-6.337 1.04 6.336 1.048 1.037 6.34 1.042-6.34 6.337-1.047-6.337-1.04-1.04-6.336v-.002z" fill="#fff"/><path d="M442.755 143.166l-2.012 12.2-12.198 2.008 12.197 2 2.01 12.2 2.003-12.2 12.197-2-12.197-2.006-2.003-12.2.003-.002zm-107.26-65.794l-1.04 6.34-6.34 1.04 6.34 1.045 1.04 6.337 1.04-6.34 6.34-1.044-6.34-1.043-1.04-6.34v.005z" fill="#546c67"/><path d="M292.903 112.414l-1.045 6.338-6.334 1.043 6.334 1.042 1.045 6.34 1.037-6.34 6.34-1.043-6.34-1.045-1.037-6.338v.002z" fill="#fff"/><path d="M355.218 397.628c78.425 17.314 142.24-31.153 142.24-108.065 0-76.893-63.815-144.45-142.24-150.56V397.63z" fill="#00120e" fill-opacity=".702"/><path d="M355.218 398.25c71.293 0 129.307-57.998 129.307-129.305 0-71.293-58.014-129.318-129.307-129.318V398.25z" fill="#2898cd"/><path d="M355.218 139.627c-71.31 0-129.33 58.025-129.33 129.317 0 71.308 58.02 129.306 129.33 129.306V139.627z" fill="#6bb8d6"/><path d="M478.923 304.098c-1.706.037-3.918.84-3.954 1.42-.032.593-2.38 1.64-3.157 1.95-.782.315-2.28 2.716-2.616 3.503-.322.8-2.238.556-2.95.875-.708.316-2.172 1.49-2.18 2.2 0 .703-.394.63-.875-.178l-.93.98-1.104 1.23c-.63 1.984-2.734 4.492-3.46 4.705-.722.202-.85 3.696-.85 5.09 0 1.416.545 3.15 1.22 3.86l.144 1.12.24 2.222c-.385 1.715.915 3.25 1.297 3.553.377.294 3.58-.575 4.8-.866.51-.122 1.144-.405 1.746-.71a128.63 128.63 0 0 0 13.313-30.88 2.928 2.928 0 0 0-.687-.07m-213.52 3.306c-.18.35 2.128 2.728 3.027 3.53.897.817 2.797 4.693 3.184 5.968.388 1.274.154 3.356.03 3.85-.11.49.435 1.568.526 2.012.084.448-.79 4.254-.456 5.785.336 1.528-1.79 6.305-1.743 8.672.05 2.373 1.122 5.463 1.563 5.233.428-.23.58 2.157-.143 2.44-.728.292-1.572 2.18-1.163 2.273.407.1-.028 1.963.09 2.707.105.747.738 5.67.867 6.892.146 1.23 1.89 4.216 2.262 5.232.37 1.02.743 2.938.886 3.228.137.297.32.595.34.61.034.01 1.443.533 1.846.844.42.308 3.187.112 4.093-.076.9-.182.07-1.008-.335-1.457-.412-.453-.77-2.637-1.24-2.858-.465-.217-.665-3.004-.252-3.614.412-.624 2.065-1.604 2.25-2.122.172-.52.223-2.942-.217-3.274-.448-.332.13-3.275-.205-4.74-.335-1.46 2.537-2.792 2.708-3.948.16-1.157 3.277-2.403 3.978-2.983.7-.585 1.317-3.898.983-4.618-.343-.707 1.148-1.29 1.81-1.29.656 0 1.404-.472 1.665-.472.25-.01 1.036-1.476 1.46-1.815.43-.332 1.303-3.84 2.077-4.42.777-.574 1.414-2.692 1.414-3.31 0-.62 1.177-2.467 1.562-3.023.392-.56 3.295-1.89 3.813-2.094.52-.22 1.304-4.882 1.51-6.556.196-1.674 1.067-3.912 1.134-4.464.054-.546.992-1.018 1.157-1.193.18-.177.87-2.312 1.313-2.802.448-.487 2.052-2.52 2.09-2.978.036-.457.28-1.618.55-2.596l-.01-1.14.014-1.816c-.51-1.405-2.064-3.163-2.468-2.777-.397.386-2.196-1.24-3.11-1.587-.925-.342-3.2-.626-3.78-.626-.578 0-2.577-1.635-3.474-1.92-.894-.276-3.18-.718-3.6-.985-.417-.265-.976-3.667-2.813-4.775-1.85-1.114-5.075-3.7-5.424-4.655-.35-.952-3.89-2.95-4.987-3.55-1.09-.603-2.743-.747-2.95-.526-.212.204-1.568-1.844-2.27-2.43-.71-.57-2.826-1.06-2.92-.54-.09.523-1.503.25-1.835-.196-.322-.437-1.42.18-1.93.35-.51.16-2.268 2.848-3.07 3.497-.818.64-1.776-.598-2.31-.83-.533-.232-2.56.4-3.118.793-.546.392-1.83-2.843-1.53-4.334.288-1.487-1.334-4.45-2.6-4.524-1.247-.073-1.644-3.184-1.392-4.334.253-1.146-2.273-1.866-2.905-1.942-.647-.084-2.207 1.533-2.48 2.307-.27.776-5.992-1.054-5.308-4.487.662-3.426 3.376-6.976 4.048-7.4.672-.415 4.35-.625 5.165-.16.818.474 1.55-.008 1.686-.218.136-.21 3.138.035 4.04.402.89.364 2.178 3.827 3.1 4.25.94.435 1.275-2.235 1.418-2.882.16-.65-.45-2.297-.67-2.765-.23-.462 1.485-4.66 2.9-5.375 1.39-.72 2.87-3.053 2.755-3.467-.12-.412 1.12-.736 1.457-.914.336-.166-.053-3.565.504-4.308.555-.73 3.177-2.287 4.016-2.642.827-.35 1.454-2.493 1.156-2.866-.303-.383 2.157-2.475 3.432-2.88 1.275-.39 2.377.736 2.063.91.255-.136 2.014-1.047 2.76-1.54.875-.584.008-2.173-.547-2.643-.567-.463-.23-2.303.45-2.476.685-.164 1.273-1.76 1.088-2.102-.175-.347 2.813.273 3.946-.57 1.132-.846.33 2.023-.508 3.18-.82 1.15.616 2.25 1.15 2.027.534-.22 1.105.616 1.213.938.105.325 1.258-.336 2.003-.008.762.333 1.205-1.03 1.267-1.653.05-.633-1.8-1.933-2.1-2.684-.28-.756-.402-5.134-.44-6.037-.045-.896-1.247-2.35-1.64-2.09-.386.25-1.173-2.33-1.795-2.892-.633-.564-.77-1.803-.748-2.22.028-.416-2.122-2.657-2.636-3.697-.518-1.038-1.244-.828-1.292-.354-.053.48-1.54.542-2.157.484-.617-.056-1.12-2.427-1.12-3.327 0-.89-2.767-1.046-3.226-1.77-.448-.72-2.255-.378-2.542-.88-.292-.5-1.892-.96-2.196-.776-.336.19-.175 6.623-.48 8.357-.314 1.733-1.78 3.257-2.318 3.22-.535-.04-.224 1.236.154 1.123.375-.122-1.04 1.89-1.23 3.213-.182 1.31-1.524-.062-1.737-1.257-.22-1.196-1.524-2.812-1.77-2.402-.253.407-1.15-.486-1.546-.237-.39.262-2.858-1.432-3.856-1.98-.99-.525-1.555-3.588-2.125-3.86-.58-.272-.093-.64-.113-1.105-.017-.462 1.933-2.24 2.522-2.95.587-.706 2.725-3.487 3.57-4.082.855-.607 1.514-2.195 1.368-2.493-.144-.286 3.625-1.466 4.655-1.82 1.022-.352 1.905-3.2 2.04-4.022.146-.82-.64-2.374-1.113-2.572-.476-.206 1.426-.277 2.06.038.632.31 2.577-.574 3.344-.168.77.406 2.325 1.33 3.453 2.042l-.252 2.094-.448 3.548c-2.98 1.24-3.836 3.365-2.793 3.32 1.04-.05 5.795 2.06 7.138 3.02 1.34.96 1.765-1.393 2.164-2.178.397-.773.266-3.054-.056-3.502-.326-.456 1.56-.294 2.085.213.525.5 1.143-.525 1.554-.704.396-.182.602-2.13.822-2.52.214-.4-.89-.797-.922-1.28-.04-.503-2.17-1.427-2.863-1.756-.705-.332-.87-1.807-.52-2.06.345-.263-.237-2.137-.578-2.753-.338-.616-2.57-1.124-3.317-1.124-.738 0-1.51-1.723-1.943-1.975-.426-.246-3.29-.56-3.992-.35-.708.206-2.013-2.036-3.2-1.35-1.197.682-2.433-.8-2.975-1.097-.54-.294-3.345 2.71-3.314 4.822.03 2.118 1.09 4.157 1.52 4.216.444.06-.097 1.97-.587 2.518-.476.538-1.658-.58-1.21-1.06.444-.475-1.217-2.688-1.792-3.587-.4-.652-1.855-1.224-2.848-1.622-.578.627-1.135 1.267-1.7 1.905.224.774.48 1.772.23 2.527-.42 1.29-1.494 1.483-1.554.925-.028-.245-.577-.43-1.22-.518-15.66 18.784-26.087 42.068-29.074 67.592.627.713 1.335 1.556 1.52 2.162.353 1.13 2.33 1.88 2.702 2.115.365.224.498-2.174.227-2.8-.25-.624.484-.998.465-.54-.014.46 1.86 2.57 2.47 3.34.616.756 1.258 5.69 1.843 6.75.6 1.06 6.284 3.254 8.122 3.635 1.835.392 4.142 2.437 4.503 3.026.36.592 2.788.894 3.315 1.127.526.243 1.78 1.89 2.297 2.236.507.35.92 1.33.92 1.594 0 .26 3.216 1.475 4 2.333.778.86 2.068.628 2.312.264.244-.358.875 1.71 1.21 2.424.32.72.406 2.477.153 2.756-.252.274-.718 3.513-1.26 4.156-.555.65-1.69 5.35-1.446 6.275.252.934 1.76 2.85 2.416 3.136.65.283.365 1.29-.145 1.36-.51.06-.273 4.55.938 5.214 1.21.66 2.216 2.652 2.05 2.993" fill="#c1e2de"/><path d="M280.62 228.642l.01-.003a.646.646 0 0 0-.007.003m-8.84-54.54c1.546-.26 4.12-.687 4.3-1.124.126-.357.142-1.42-.146-1.794.24.02.532.028.745.028.588 0 1.572-3.222 2.19-3.972.626-.75 4.16-1.863 4.996-2.37.85-.514 2.694-2.287 3.404-2.494.706-.21 1.744-1.863 1.583-2.2-.154-.33 2.4-1.88 3.37-2.29.965-.41 1.47-1.548 1.105-1.593-.23-.028-5.635 2.792-10.58 5.603a130.084 130.084 0 0 0-15.914 12.77c1.548-.112 3.936-.392 4.948-.563m93.523 160.95c1.653-.976 4.468-5.135 5.39-6.01.922-.876 1.597-4.025 1.797-4.71.182-.688 1.587-1.8 2.11-1.952.528-.145 2.203-7.12 3.676-8.642 1.47-1.522 3.2-8.892 3.015-11.55-.19-2.646.94-7.695 1.29-8.913.358-1.216 2.203-3.368 2.773-3.815.57-.448 4.124-5.712 5.275-7.592 1.135-1.89 2.233-6.03 2.012-6.997-.225-.975-2.69-1.653-3.155-1.177-.465.485-2.792.877-3.538.877-.747 0-2.455-3.988-3.514-4.81-1.057-.818-2.01-5.39-2.62-6.252-.61-.864-2.317-3.055-2.85-3.56-.532-.502-.63-2.922-.745-3.587-.123-.658 1.026.437 1.227 1.397.196.966 2.932 4.86 3.787 6.177.846 1.31 3.08 5.484 3.65 6.79.573 1.307 5.542.646 7.148-.114 1.625-.766 3.628-2.052 3.704-2.502.075-.45 2.65-1.628 3.36-2.202.71-.574 1.35-3.558 1.813-4.04.465-.49-.372-3.338-.913-4.185-.532-.855-3.11-1.527-3.628-1.197-.524.337-1.64-1.905-2.034-2.73-.398-.832-2.363-1.84-2.586-2.405-.203-.57.537-1.458.848-1.652.312-.2 3.946 2.354 4.998 3.623 1.036 1.27 2.234 3.6 2.437 4.012.185.402 3.064.61 3.707.136.63-.468 1.37-.34 1.62.266l.91-.154 3.147-.493c1.487 1.615 1.918 3.012 1.883 3.338-.03.31.916 1.625 1.527 1.765.605.143 1.057 2.202 1.247 2.71.175.518 1.975 3.6 2.34 4.894.374 1.3 1.904 3.832 2.272 4.508.364.683.658 2.65.658 3.185 0 .532 1.155 1.593 1.877 1.544.71-.05 2.157-4.562 2.493-6.243.336-1.676 1.495-3.062 1.82-3.062.33 0 .59-.945.59-1.305 0-.35 1.828-.317 1.996-.774.15-.46.692-3.44 1.34-3.894.66-.454 2.966-1.966 3.782-2.25.804-.28 2.872 1.505 3.345 2.34.457.832.875 2.956.702 3.3-.177.348 1.088 2.176 2.2 2.148 1.092-.035 1.442 1.395 1.47 1.913.047.516 1.496 1.992 1.787 2.653.288.658.202 2.46.006 2.872-.192.406-.063 2.773.15 3.434.212.66 3.606 4.098 4.87 5.14 1.27 1.04 1.875-2.124 1.228-3.108-.66-.99-2.876-3.28-3.393-3.96-.517-.694-.61-3.44-.41-4.21.19-.77 1.936.427 2.66.98.723.557 1.677 1.798 1.7 2.214.03.41 4.57-2.136 4.73-4.9.16-2.767 1.67-5.883 1.82-6.607.155-.732-.447-1.728-.828-1.755-.388-.036.67-2.112 1.95-2.078 1.283.04 4.348-3.38 5.068-4.732.728-1.36 2.19-2.474 2.36-2.65.174-.155 1.195-3.367 1.363-4.693.175-1.325-.746-3.4-.854-4.088-.108-.68-1.206-2.263-1.494-2.76-.275-.495-.547-2.352-.375-2.703.17-.335 1.32-.71 1.444-1.014.122-.315 1.443-1.716 1.34-2.337-.1-.623.816.8 1.418 1.316.603.507 1.258 3.802 2.004 4.167.728.362 3.756-3.495 3.384-5.98-.364-2.494.874-5.677 1.597-5.966.56-.217 1.978-2.23 2.937-3.67-6.637-19.168-17.644-36.298-31.85-50.2a1.82 1.82 0 0 1-.485-.014l-1.115-.235c-1.852-.396-2.928-2.38-2.614-2.84.105-.142.082-.475-.01-.87a121.752 121.752 0 0 0-3.17-2.746c-.88-.028-1.802 0-2.34-.022-1.113-.047-3.52-.837-3.958-1.268-.432-.43-1.88.382-1.97 1.183-.102.805-2.625 1.174-2.86 1.788-.258.61-1.553.655-1.806.308-.252-.342-2.598.83-3.772 1-1.165.164-3.34 1.112-3.863 1.346-.527.227-1.76 1.44-1.966 1.943-.19.503-1.692 1.344-2.17 1.534-.49.19-.385 2.372.233 2.684.616.298-1.157-.263-1.936-.67-.793-.392-1.655.932-1.9 1.39-.247.448-.965-.276-.937-.927.025-.65-1.933-1.176-2.194-.653-.26.518-1.612-.177-2.18-.47-.56-.3-3.002 2.242-3.903 3.15-.896.91-5.22 1.62-6.026 1.277-.807-.34-1.6 1.912-.905 2.06.676.14-1.754-.11-3.096.016-1.342.13-5.243 1.688-6.165 2.38a1.01 1.01 0 0 1-.68.263 1.02 1.02 0 0 1-1.012-.948c0-.533-1.48-1.027-1.92-1.173-.437-.15-1.304 2.914-2.075 3.505-.777.602-1.71-2.39-3.527-2.886-1.82-.49-4.664-2.246-5.472-2.456-.798-.214-2.432-1.912-2.88-2.4-.458-.498-2.79-.903-3.537-.903-.747 0-3.156 1.383-3.798 1.927-.658.547-1.63.44-1.94.63-.33.2-3.055 2.867-4.108 3.703-1.06.832-2.904 4.43-3.497 5.29-.424.602-1.097.982-1.83 1.037-.35.014-.64.978-.64 1.328 0 .356-3.133 1.987-3.455 3.404-.333 1.418.305 4.664.305 5.82 0 1.15 1.16 3.44 2.027 3.476.862.038.41 1.96.182 2.494-.224.546.547 1.134.527 1.594-.022.456-2.193 1.1-2.866 1.358-.678.247-1.76 1.765-1.905 2.333-.123.49-2.21.837-2.895 1.5.168-.475.403-1.133.592-1.506.397-.76-.152-2.084-.477-2.354-.33-.273-.49-4.037-1.017-4.84-.524-.81-1.843-2.17-2.163-2.437-.328-.265.22-1.254.412-1.677.19-.414-1.755-.658-2.286-.346-.536.31-.818 4.028-1.046 5.05-.213 1.017.96 2.582 1.29 2.656.31.076.227 1.905-.45 1.967-.686.07-1.312 2.745-.963 3.353.35.617-.484 1.81-.89 2.09-.402.272 2.615.115 4.002.082 1.373-.042 2.45.58 2.308.693-.143.112-2.636.48-3.087 1.072-.44.592-2.135 1.725-2.465 2.185-.327.448.56 1.457 1.277 1.406.712-.04 1.53 2.48 2.094 2.946.546.467.35 1.773.107 2.136-.252.35-3.62-.245-4.893.07-1.286.316-2.904 3.026-3.012 4.045-.12 1.023.202 3.957.376 4.77.158.805 2.843 1.317 3.376 1.713.557.392 3.117.014 3.66.26.517.25 2.254-2.6 2.598-3.92.325-1.33 3.063-3.753 3.634-4.658.572-.896 3.512-.79 4.236-1.263.728-.466.322 2.234.672 3.716.345 1.492 3.16 1.303 2.752-.095-.41-1.386.28-1.995.39-1.49.122.5 2.824 1.607 3.344 2.39.51.788.364 2.448-.238 2.43-.6-.026-.625 1.826.017 2.028.63.193 1.477-2.083 2.163-2.42.686-.344 1.237-1.763.913-1.87-.3-.11.582-1.38.972-.96.386.42-1.442-2.768-2.6-3.93-1.152-1.157-.343-.644 1.815 1.152l1.484 2.087c.29.368.673 1.513.93 1.928l.342.616c.296.73.548 2.725.548 3.27 0 .535 1.173 1.6 1.873 1.545.71-.05 1.252.337 1.108.365-.144.025.466 1.407 1.172 1.44.7.028 1.01-1.788.297-1.83-.707-.035-.602-2.66-.69-3.8-.082-1.15.507-2.08.752-2.08.24 0-.032 2.347-.01 2.885.01.547.31 1.608.645 2.37l.728.552 1.63 1.257c2.34-.69 5.482-.158 5.366.318-.13.48 1.73.598 1.837-.177.115-.763.2.024.2.56 0 .527-1.534 2.616-1.792 3.584-.26.96-5.662.31-7.988.128-2.326-.175-5.758.616-6.02 1.31-.26.7-3.888-1.595-5.562-2.294-1.66-.704-2.967-3.24-3.302-3.57-.353-.335.28-1.15.12-1.655-.162-.505-3.956-.61-5.063-.197-1.107.407-6.794 1.01-8.148 1.6-1.345.602-3.382-.042-4.007-.15-.633-.11-2.14 1.75-2.905 2.087-.774.336-1.734 2.97-2.154 5.865l-1.037 2.015-.67 1.29c-1.883 1.433-3.965 6.207-4.58 7.165-.603.957-1.1 7.834-1.1 10.144 0 2.31 2.02 7.21 2.592 8.56.575 1.348 4.063 4.34 5.22 5.053 1.166.704 4.95.8 6.205.796 1.233-.008 2.652-1.185 3.132-2.62l1.82.182.838.08c.038 1.024 2.73 1.84 3.39 2.196.65.36 2.426.084 2.95-.07.528-.15 1.125 4.6.732 5.974-.378 1.368.94 6.186 1.323 7.632.392 1.454 2.038 5.415 2.207 6.843.16 1.42-.97 6.152-1.157 7.808-.182 1.66 2.062 6.293 2.658 7.883.586 1.597 1.077 5.023 1.077 5.816 0 .8 2.462 5.59 3.02 7.56.57 1.978 6.743 2.457 8.404 1.49m106.612-58.72c.158.35 1.712-.88 2.643-1.02.94-.148 1.523-2.652.793-2.827-.728-.2-1.653-2.118-2.19-2.353-.515-.234-1.544.826-1.498 1.583.04.76-1.692 1.07-2.028 1.703-.32.626-.306 1.084.056 1.023.343-.063 2.064 1.54 2.224 1.894m-1.905 13.577c.467-.172-.053-2.64-1.023-2.85-.973-.198-3.65 3.258-3.137 5.246.512 1.98 1.064 1.863 1.344 1.445.28-.416 1.88.274 2.352.43.466.155.466-.325 0-1.057-.473-.734.008-3.04.466-3.212m-5.292-2.41c.108-.882.28-3.64.428-4.192.154-.55-1.504-2.13-2.316-2.418-.81-.283-3.415 5.372-5.29 6.377-1.875 1.008-2.546 4.45-2.06 5.247.504.796 4.408 1.216 5.085 1.818.686.598 1.44-.095 1.85-.196.415-.1.283-.364.132-.47-.16-.097 1.36-1.7 1.576-2.72.215-1.012.483-2.57.596-3.447m-10.62 9.418c-1.467-.554-3.19.31-3.326.878-.146.564 5.64 1.486 7.56 2.004 1.914.52 3.11.69 2.676.364-.443-.322-5.45-2.69-6.91-3.245m11.733-37.623c.466-.648-.65-3.674-1.203-2.99-.56.685-.154 2.45.02 3.072.176.602.715.568 1.18-.082m3.494 6.496c.337-.782-.42-1.646-1.67-1.905-1.25-.26-1.066 3.503-.517 3.982.54.473 1.844-1.29 2.185-2.076m6.512 23.317c1.492 1.05 4.837.568 4.938-1.457-1.48-.97-5.068-.805-4.938 1.457m-.808-46.144c-.625.433-.953 1.544-.764 1.992a3.533 3.533 0 0 0-.252-.007c-.5 0-.556 1.972-.028 2.31.507.337 1.78-1.54 2.438-1.984.665-.45 1.99-.72 2.19-.577.204.14 1.354-.21 2.58-.77.215-.106.473-.426.73-.886-.294-1.443-.647-2.86-.98-4.28-.626.457-1.328.952-1.656 1.242-.66.596-3.44 2.4-4.258 2.96" fill="#c1e2de"/><path d="M440.84 282.674c.01.006.017.003.017.007-.26-.18-.3-.21-.017-.005m9.312 8.68c-.54-1.226-2.33-3.296-3.978-4.607l-.622-1.023-.686-1.135c-.61-1.24-2.47-2.196-2.622-2.572-.163-.36-.754 1.082-1.387.663.336.234 1.027.727 2.003 1.42 1.737 1.24 5.085 9.667 5.847 10.257.756.59 1.99-1.775 1.445-2.998m-26.697-13.61c-.462.95 2.476 2.97 2.708 2.506.242-.462-.376-2.794-.897-3.31-.52-.512-1.336-.147-1.81.8M384.39 322.74c.116 1 2.147 1.793 2.728 1.633.603-.167 2.242-3.193 2.47-4.058.23-.88.412-2.75.412-3.198 0-.442.276-1.446.5-1.57.223-.117.597-1.148.824-2.285.23-1.147-1.22-6.455-1.258-7.388-.038-.934-1.09.482-1.356 1.425-.287.943-2.928 2.865-3.52 3.67-.578.8-1.227 3.512-.998 3.982.22.462-.23 2.314-.494 2.833-.26.512.585 3.95.693 4.955m-95.34 36.76h1.78c.308-1.924-1.877-1.603-1.78 0m47.388-200.09c-.748.092-2.673-.29-3.012-.647-.326-.354-3.212-.666-4.052-.316-.83.353-.26-2.03.9-2.29 1.16-.26.174-1.9-1.06-1.904-1.234-.01-4.285-.462-5.002-.3-.72.155-2.115-.5-2.63-.574-.508-.07-4.173 1.098-5.902 1.01-1.74-.077-5.993.097-6.906.356-.938.242-1.604 2.048-1.467 2.684.132.644-4.12.633-5.454.65-1.345.018-8.47 1.536-10.338 2.563-1.857 1.016-3.314 3.637-2.696 3.692.615.046-1.035 1.53-2.028 1.877-1.005.342-3.4.493-3.956 1.06-.566.555.595.942.815 1.32.222.373.895-.326 1.528.035.623.35 2.703.524 3.25.734.56.218-1.757.657-2.85.737-1.09.076-.844 2.214.043 2.508.89.298 3.176.616 3.41.243.23-.372 2.716.407 3.834.537 1.114.12 1.97 2.92 2.31 3.53.343.605.413 2.737.328 3.355-.075.616 1.98 1.742 2.346 1.35.37-.392.27.967-.553.894-.824-.07-.28 2.297.732 2.645 1.005.332.313 1.792-.266 2.236-.587.437-.268 1.832-.867 2.336-.596.493 2.125 5.21 2.11 7.634-.015 2.424 1.494 4.406 2.072 4.406.577 0 2.578.49 2.836 1.008.26.52 1.226-.36 1.61-.762.363-.392 1.178-1.56 1.796-2.587.606-1.027 1.98-5.892 2.164-6.415.182-.522 2.47-.196 2.988-.462.518-.266 2.01-1.438 2.44-1.793.418-.35 3.68-1.727 4.57-2.374.883-.637 2.368-3.398 3.064-3.99.687-.588-.36-.41-1.227-.98-.86-.567-.482-1.266-.23-1.53.246-.27 2.872.435 3.783.788.907.358 2.628-.894 1.972-1.377-.672-.477-.32-.466 0-.264.322.196.656-1.592.314-1.933-.353-.344 2.65-2.535 2.126-4.608-.528-2.07.815-4.2 1.62-4.222.818-.028.582-2.344-.39-2.558-.965-.21-.057-.425.31-.757.347-.33.812-2.395.6-2.794-.217-.4 1.477-.843 1.767-1.316.31-.468 2.24-1.394 2.925-1.548.68-.16 1.062-1.975.322-1.894m16.846 1.7c-.92-.312-2.788.707-2.55 1.283.245.588-1.527-.737-2.752-.107-1.226.647-1.57 2.802-1.01 3.082.576.28.98 1.995.996 2.325.024.334 2.39.094 3.002-.403.602-.502.518 1.734-.076 2.34-.602.606.213 1.816.876 1.915.663.096 1.55 1.653 2.235 1.635.674-.018 1.843-2.628 2.102-3.61.266-.972 2.53-.203 3.567.11 1.035.305 1.407-3.6.29-4.19-1.116-.582-2.52-.29-2.985-.737-.465-.453-1.256-.873-1.782-.95-.52-.077-1.008-2.385-1.915-2.695m9.037 1.873c1.818.256 3.877-1.244 4.318-1.67.45-.42-5.06-1.542-7.146-1.608-2.096-.07-3.788.22-3.757.635.028.403 4.754 2.38 6.583 2.643m-33.29 49.348c-.478-.2-.746 1.605-.63 2.29.106.685 1.79.626 2.505.503.72-.12 1.275-.7 1.243-1.296-.032-.588-1.05-3.278-1.453-3.278-.407 0-1.177 1.974-1.665 1.78m5.413-20.985c-.378-.663-3.24-.585-3.94-.627-.694-.036-2.836-.752-3.24-1.208-.4-.452-.715 1.765-1.365 2.05-.66.287.317.712.59.477.265-.24-.015 1.137-.314 1.61-.297.473 1.905.803 2.157 1.52.246.71 1.155 1.176 2.02 1.038.862-.145 2.583-1.036 3.194-1.095.602-.062 1.275-3.106.897-3.768m60.1-16.39c.985-.988 5.032-2.318 5.49-3.34.455-1.017-.284-1.85-.695-1.85-.413 0-.914.513-1.01.674-.097.17-4.745 1.26-6.163 1.952-1.434.683-3.084 1.742-3.678 2.353-.604.603-1.588 5.204-1.934 5.725-.34.518 1.54 2.395 2.38 2.913.837.514 1.99.243 2.312.146.325-.1-.437-3.316-.865-4.435-.45-1.113 3.18-3.14 4.16-4.136m-4.966-11.992c1.53 1.513 2.37-.678 4.046-.462-.028-3.082-4.197-2.026-4.046.462m29.698.573c-.046.57 4.23 1.022 5.48.807 1.25-.22-.258-2.166-2.087-2.054-1.82.12-3.34.682-3.393 1.247m-154.715 31.69c-.448.413-.06 2.507.798 2.57.855.06 2.218-3.16 3.27-2.516 1.046.647 1.752.9 1.584.557-.182-.34-3.16-1.647-3.526-1.884-.372-.224-1.67.86-2.126 1.27m10.93 70.95c0 .352 1.86.304 2.17-.27.29-.568.14-1.033-.366-1.033-.494 0-1.804.94-1.804 1.3m-8.292-3.063c.89-.166.472 1.274.686 1.787.213.527 2.353.936 2.782 1.29.424.346 1.53-.657 2.385-.547.852.106-.28-2.96-1.716-2.872-1.43.094-2.57-1.3-2.904-1.467-.35-.157-2.003-1.162-2.485-1.55-.465-.38-4.112-.705-5.356-.705-1.242 0-2.607 1.268-2.796 1.675-.196.423 1.964.704 2.573.374.627-.322 3.516.365 4.11 1.062.594.692 1.82 1.125 2.72.953m-3.9 3.065c0 .353 1.88.135 2.33.148.454.007.442-.304-.03-.683-.474-.383-2.302.175-2.302.535m1.335-9.677c-.49-.196-.885.574-.885.936 0 .362.27.66.602.66.328 0 .77-1.397.283-1.595m3.938.3c-.16-.363-.967-.654-1.21-.654-.247 0-.41.627-.37 1.378.043.762 1.742-.365 1.58-.722m2.843 4.368c.755-.364.853-1.275.405-1.224-.457.044-1.29-1.312-1.785-1.502-.487-.196-.882.808-.882 1.25 0 .448.273.745.605.658.34-.084.886 1.17 1.657.816m210.085 29.543c-.396.206-2.287.43-2.54.06-.252-.374-.623.77-1.033.948-.397.188-.185 1.177.426.873.42-.21 2.218.787 3.68 1.702.29-1.447.543-2.9.785-4.366-.525.277-1.078.65-1.317.784" fill="#c1e2de"/><path d="M265.404 307.406c-.182.35 2.127 2.728 3.026 3.53.897.817 2.797 4.693 3.184 5.968.388 1.274.154 3.356.03 3.85-.11.49.435 1.568.526 2.012.084.448-.79 4.254-.456 5.785.336 1.528-1.79 6.305-1.743 8.672.05 2.373 1.122 5.463 1.563 5.233.428-.23.58 2.157-.143 2.44-.728.292-1.572 2.18-1.163 2.273.407.1-.028 1.963.09 2.707.105.747.738 5.67.867 6.892.146 1.23 1.89 4.216 2.262 5.232.37 1.02.743 2.938.886 3.228.137.297.32.595.34.61.034.01 1.443.533 1.846.844.42.308 3.187.112 4.093-.076.9-.182.07-1.008-.335-1.457-.412-.453-.77-2.637-1.24-2.858-.465-.217-.665-3.004-.252-3.614.412-.624 2.065-1.604 2.25-2.122.172-.52.223-2.942-.217-3.274-.448-.332.13-3.275-.205-4.74-.335-1.46 2.537-2.792 2.708-3.948.16-1.157 3.277-2.403 3.978-2.983.7-.585 1.317-3.898.983-4.618-.343-.707 1.148-1.29 1.81-1.29.656 0 1.404-.472 1.665-.472.25-.01 1.036-1.476 1.46-1.815.43-.332 1.303-3.84 2.077-4.42.777-.574 1.414-2.692 1.414-3.31 0-.62 1.177-2.467 1.562-3.023.392-.56 3.295-1.89 3.813-2.094.52-.22 1.304-4.882 1.51-6.556.196-1.674 1.067-3.912 1.134-4.464.054-.546.992-1.018 1.157-1.193.18-.177.87-2.312 1.313-2.802.448-.487 2.052-2.52 2.09-2.978.036-.457.28-1.618.55-2.596l-.01-1.14.014-1.816c-.51-1.405-2.064-3.163-2.468-2.777-.397.386-2.196-1.24-3.11-1.587-.925-.342-3.2-.626-3.78-.626-.578 0-2.577-1.635-3.474-1.92-.894-.276-3.18-.718-3.6-.985-.417-.265-.976-3.667-2.813-4.775-1.85-1.114-5.075-3.7-5.424-4.655-.35-.952-3.89-2.95-4.987-3.55-1.09-.603-2.743-.747-2.95-.526-.212.204-1.568-1.844-2.27-2.43-.71-.57-2.826-1.06-2.92-.54-.09.523-1.503.25-1.835-.196-.322-.437-1.42.18-1.93.35-.51.16-2.268 2.848-3.07 3.497-.818.64-1.776-.598-2.31-.83-.533-.232-2.56.4-3.118.793-.546.392-1.83-2.843-1.53-4.334.288-1.487-1.334-4.45-2.6-4.524-1.247-.073-1.644-3.184-1.392-4.334.253-1.146-2.273-1.866-2.905-1.942-.647-.084-2.207 1.533-2.48 2.307-.27.776-5.992-1.054-5.308-4.487.662-3.426 3.376-6.976 4.048-7.4.672-.415 4.35-.625 5.165-.16.818.474 1.55-.008 1.686-.218.136-.21 3.138.035 4.04.402.89.364 2.178 3.827 3.1 4.25.94.435 1.275-2.235 1.418-2.882.16-.65-.45-2.297-.67-2.765-.23-.462 1.485-4.66 2.9-5.375 1.39-.72 2.87-3.053 2.755-3.467-.12-.412 1.12-.736 1.457-.914.336-.166-.053-3.565.504-4.308.555-.73 3.177-2.287 4.016-2.642.827-.35 1.454-2.493 1.156-2.866-.303-.383 2.157-2.475 3.432-2.88 1.275-.39 2.377.736 2.063.91.255-.136 2.014-1.047 2.76-1.54.875-.584.008-2.173-.547-2.643-.567-.463-.23-2.303.45-2.476.685-.164 1.273-1.76 1.088-2.102-.175-.347 2.813.273 3.946-.57 1.132-.846.33 2.023-.508 3.18-.82 1.15.616 2.25 1.15 2.027.534-.22 1.105.616 1.213.938.105.325 1.258-.336 2.003-.008.762.333 1.205-1.03 1.267-1.653.05-.633-1.8-1.933-2.1-2.684-.28-.756-.402-5.134-.44-6.037-.045-.896-1.247-2.35-1.64-2.09-.386.25-1.173-2.33-1.795-2.892-.633-.564-.77-1.803-.748-2.22.028-.416-2.122-2.657-2.636-3.697-.518-1.038-1.244-.828-1.292-.354-.053.48-1.54.542-2.157.484-.617-.056-1.12-2.427-1.12-3.327 0-.89-2.767-1.046-3.226-1.77-.448-.72-2.255-.378-2.542-.88-.292-.5-1.892-.96-2.196-.776-.336.19-.175 6.623-.48 8.357-.314 1.733-1.78 3.257-2.318 3.22-.535-.04-.224 1.236.154 1.123.375-.122-1.04 1.89-1.23 3.213-.182 1.31-1.524-.062-1.737-1.257-.22-1.196-1.524-2.812-1.77-2.402-.253.407-1.15-.486-1.546-.237-.39.262-2.858-1.432-3.856-1.98-.99-.525-1.555-3.588-2.125-3.86-.58-.272-.093-.64-.113-1.105-.017-.462 1.933-2.24 2.522-2.95.587-.706 2.725-3.487 3.57-4.082.855-.607 1.514-2.195 1.368-2.493-.144-.286 3.625-1.466 4.655-1.82 1.022-.352 1.905-3.2 2.04-4.022.146-.82-.64-2.374-1.113-2.572-.476-.206 1.426-.277 2.06.038.632.31 2.577-.574 3.344-.168.77.406 2.325 1.33 3.453 2.042l-.252 2.094-.448 3.548c-2.98 1.24-3.836 3.365-2.793 3.32 1.04-.05 5.795 2.06 7.138 3.02 1.34.96 1.765-1.393 2.164-2.178.397-.773.266-3.054-.056-3.502-.326-.456 1.56-.294 2.085.213.525.5 1.143-.525 1.554-.704.396-.182.602-2.13.822-2.52.214-.4-.89-.797-.922-1.28-.04-.503-2.17-1.427-2.863-1.756-.705-.332-.87-1.807-.52-2.06.345-.263-.237-2.137-.578-2.753-.338-.616-2.57-1.124-3.317-1.124-.738 0-1.51-1.723-1.943-1.975-.426-.246-3.29-.56-3.992-.35-.708.206-2.013-2.036-3.2-1.35-1.197.682-2.433-.8-2.975-1.097-.54-.294-3.345 2.71-3.314 4.822.03 2.118 1.09 4.157 1.52 4.216.444.06-.097 1.97-.587 2.518-.476.538-1.658-.58-1.21-1.06.444-.475-1.217-2.688-1.792-3.587-.4-.652-1.855-1.224-2.848-1.622-.578.627-1.135 1.267-1.7 1.905.224.774.48 1.772.23 2.527-.42 1.29-1.494 1.483-1.554.925-.028-.245-.577-.43-1.22-.518-.577.7-1.143 1.417-1.713 2.133-.555.7-1.114 1.4-1.662 2.115-.585.763-1.16 1.533-1.723 2.312-.51.693-1.004 1.4-1.503 2.104a144.89 144.89 0 0 0-2.17 3.183c-.68 1.025-1.343 2.06-1.99 3.106-.556.9-1.09 1.813-1.62 2.727-.36.628-.726 1.258-1.09 1.89-.536.958-1.06 1.922-1.572 2.89-.287.553-.57 1.11-.855 1.665a121.81 121.81 0 0 0-3.306 6.968c-.032.067-.07.132-.09.196-.512 1.163-.984 2.344-1.458 3.526a127.11 127.11 0 0 0-1.89 5.003c-.076.204-.136.41-.21.617a126.66 126.66 0 0 0-3.66 12.626l-.207.86c-1.02 4.48-1.8 9.01-2.34 13.573 0 .037-.01.068-.014.1.625.713 1.333 1.556 1.517 2.162.354 1.13 2.33 1.88 2.703 2.115.365.224.498-2.174.227-2.8-.25-.624.484-.998.465-.54-.014.46 1.86 2.57 2.47 3.34.616.756 1.258 5.69 1.843 6.75.6 1.06 6.284 3.254 8.122 3.635 1.835.392 4.142 2.437 4.503 3.026.36.592 2.788.894 3.315 1.127.526.243 1.78 1.89 2.297 2.236.507.35.92 1.33.92 1.594 0 .26 3.216 1.475 4 2.333.778.86 2.068.628 2.312.264.244-.358.875 1.71 1.21 2.424.32.72.406 2.477.153 2.756-.252.274-.718 3.513-1.26 4.156-.555.65-1.69 5.35-1.446 6.275.252.934 1.76 2.85 2.416 3.136.65.283.365 1.29-.145 1.36-.51.06-.273 4.55.938 5.214 1.21.66 2.216 2.652 2.05 2.993" fill="#fff"/><path d="M280.628 228.637l-.007.005.008-.003v-.003zm-8.846-54.535c1.547-.26 4.12-.686 4.3-1.123.127-.357.143-1.42-.145-1.794.24.02.532.028.745.028.588 0 1.572-3.222 2.19-3.972.626-.75 4.16-1.863 4.996-2.37.85-.514 2.694-2.287 3.404-2.494.706-.21 1.744-1.863 1.583-2.2-.154-.33 2.4-1.88 3.37-2.29.965-.41 1.47-1.548 1.105-1.593-.23-.028-5.635 2.792-10.58 5.603l-.137.1c-1.415.966-2.81 1.958-4.188 2.977-.933.696-1.845 1.414-2.76 2.133a100.272 100.272 0 0 0-4.673 3.835c-.22.19-.452.387-.672.582a156.108 156.108 0 0 0-3.483 3.146c1.548-.11 3.937-.39 4.948-.562m81.824 63.136c-.603-.025-.626 1.828.016 2.028.465.14 1.042-1.036 1.592-1.815v-7.203c-.056-.05-.103-.112-.144-.16-.76-.77-.647-.787.146-.192v-44.236c-.656.608-1.297 1.185-1.7 1.5-1.057.833-2.903 4.432-3.496 5.292-.424.6-1.096.98-1.83 1.037-.35.014-.64.977-.64 1.328 0 .354-3.13 1.984-3.452 3.403-.334 1.418.305 4.665.305 5.82 0 1.15 1.16 3.44 2.027 3.476.862.04.41 1.96.185 2.493-.225.547.545 1.135.524 1.594-.023.456-2.195 1.1-2.866 1.358-.676.248-1.76 1.768-1.905 2.333-.122.49-2.21.838-2.895 1.5.168-.477.403-1.135.594-1.506.396-.76-.152-2.083-.48-2.354-.327-.273-.487-4.034-1.013-4.84-.524-.812-1.845-2.17-2.163-2.44-.33-.26.22-1.25.412-1.674.188-.414-1.755-.658-2.284-.346-.537.31-.818 4.03-1.047 5.05-.215 1.016.957 2.58 1.288 2.655.31.075.228 1.905-.45 1.966-.687.07-1.31 2.747-.96 3.355.35.613-.487 1.81-.893 2.087-.4.273 2.615.116 4.004.084 1.37-.042 2.45.58 2.307.692-.144.115-2.638.482-3.087 1.073-.442.594-2.135 1.728-2.463 2.186-.328.45.558 1.457 1.275 1.408.714-.042 1.53 2.48 2.094 2.942.55.47.35 1.775.108 2.137-.252.35-3.62-.243-4.893.07-1.285.317-2.9 3.026-3.01 4.046-.118 1.02.2 3.956.375 4.77.16.803 2.843 1.315 3.376 1.71.558.393 3.117.014 3.66.26.52.252 2.256-2.6 2.6-3.917.327-1.33 3.064-3.754 3.634-4.66.572-.897 3.513-.79 4.238-1.264.725-.463.322 2.236.672 3.718.343 1.492 3.16 1.303 2.75-.095-.41-1.387.28-1.996.388-1.49.123.498 2.827 1.606 3.348 2.39.507.786.36 2.448-.238 2.428" fill="#fff"/><path d="M355.218 245.993c-.56-.29-1.074-.55-1.475-.717-1.658-.705-2.966-3.24-3.3-3.57-.354-.335.28-1.15.12-1.655-.162-.503-3.957-.607-5.063-.195-1.107.406-6.797 1.008-8.15 1.6-1.345.602-3.38-.042-4.006-.15-.63-.11-2.14 1.75-2.904 2.087-.776.336-1.737 2.97-2.157 5.865l-1.037 2.017-.668 1.29c-1.883 1.43-3.964 6.204-4.58 7.162-.603.957-1.1 7.835-1.1 10.145 0 2.312 2.02 7.212 2.593 8.562.575 1.348 4.063 4.34 5.22 5.053 1.167.703 4.952.8 6.206.796 1.232-.006 2.65-1.183 3.132-2.62l1.82.183.84.082c.036 1.022 2.727 1.837 3.39 2.195.648.36 2.424.084 2.95-.07.526-.15 1.123 4.598.73 5.974-.377 1.367.94 6.186 1.323 7.63.393 1.455 2.04 5.417 2.21 6.844.157 1.422-.968 6.152-1.158 7.808-.182 1.66 2.062 6.294 2.657 7.884.585 1.597 1.075 5.023 1.075 5.816 0 .406.633 1.842 1.336 3.412v-83.425h-.002z" fill="#fff"/><path d="M473.806 177.37l-83.943-12.25c-10.17-1.486-19.617 5.567-21.096 15.72l-29.313 200.833c-1.482 10.16 5.558 19.607 15.727 21.09l83.94 12.25c10.165 1.485 19.608-5.555 21.09-15.717l29.31-200.83c1.48-10.154-5.554-19.612-15.717-21.094" fill="#0e303f"/><path d="M413.925 183.14l31.647 4.62c.84.076 1.49.79 1.49 1.632a1.647 1.647 0 0 1-1.964 1.606l-31.643-4.618a1.63 1.63 0 0 1-1.365-1.852 1.637 1.637 0 0 1 1.835-1.387m-14.798 212.19c-5.883-.86-9.952-6.334-9.095-12.214.767-5.263 5.327-9.207 10.646-9.207.52 0 1.042.036 1.558.112 5.264.762 9.212 5.322 9.212 10.64 0 .524-.038 1.046-.114 1.564-.766 5.268-5.33 9.217-10.655 9.217-.52 0-1.04-.037-1.555-.112" fill="#fff"/><path d="M351.635 354.764l104.61 15.264L478.86 215.05l-104.61-15.265-22.615 154.978z" fill="#2898cd"/><path d="M351.635 354.764l104.61 15.264L478.86 215.05 351.635 354.764z" fill="#2078a2"/><path d="M401.76 377.282c-4.052-.587-7.87 2.26-8.467 6.31-.592 4.055 2.255 7.88 6.31 8.475.356.052.716.078 1.077.078 3.693 0 6.86-2.74 7.39-6.396a7.49 7.49 0 0 0 .077-1.08c0-3.69-2.737-6.856-6.39-7.388" fill="#0e303f"/><path d="M289.05 359.5h1.78c.308-1.926-1.877-1.605-1.78 0m35.822-176.822c.906.358 2.628-.897 1.972-1.377-.672-.476-.32-.464 0-.263.322.197.656-1.594.314-1.933-.353-.344 2.647-2.535 2.125-4.608-.53-2.07.812-4.2 1.62-4.222.817-.028.582-2.344-.394-2.56-.962-.21-.057-.424.312-.756.348-.33.813-2.398.6-2.794-.217-.402 1.476-.844 1.765-1.317.314-.468 2.244-1.394 2.928-1.55.68-.16 1.06-1.975.322-1.893-.75.092-2.676-.29-3.012-.647-.328-.355-3.215-.667-4.054-.317-.828.353-.258-2.03.9-2.29 1.16-.26.174-1.9-1.06-1.905-1.233-.01-4.283-.46-5-.3-.722.157-2.116-.497-2.63-.572-.508-.073-4.174 1.097-5.904 1.01-1.737-.077-5.99.097-6.906.356-.936.24-1.6 2.047-1.464 2.683.132.644-4.122.633-5.455.65-1.343.018-8.47 1.537-10.336 2.563-1.858 1.017-3.315 3.637-2.697 3.69.616.05-1.036 1.534-2.028 1.88-1.004.342-3.4.494-3.956 1.06-.566.555.596.943.816 1.32.22.374.893-.325 1.526.036.622.35 2.704.524 3.25.734.56.217-1.758.66-2.85.738-1.09.075-.844 2.214.04 2.508.89.297 3.18.616 3.414.242.23-.37 2.713.406 3.833.537 1.113.12 1.97 2.92 2.31 3.533.343.603.413 2.736.327 3.353-.075.62 1.98 1.744 2.347 1.353.37-.393.266.965-.555.892-.822-.07-.28 2.298.734 2.644 1.004.336.312 1.796-.27 2.24-.587.438-.265 1.833-.868 2.337-.592.494 2.13 5.21 2.113 7.635-.016 2.423 1.495 4.405 2.074 4.405.577 0 2.577.488 2.835 1.01.258.517 1.225-.36 1.607-.763.364-.392 1.177-1.562 1.797-2.588.607-1.028 1.98-5.893 2.165-6.415.18-.523 2.467-.196 2.985-.462.518-.267 2.012-1.44 2.442-1.796.416-.35 3.68-1.724 4.57-2.37.883-.64 2.368-3.4 3.064-3.994.687-.584-.36-.41-1.226-.98-.862-.565-.482-1.264-.23-1.527.245-.27 2.872.433 3.782.786m28.414-21.573c-.92-.313-2.788.706-2.55 1.282.245.588-1.527-.737-2.752-.107-1.226.647-1.57 2.802-1.01 3.082.576.28.98 1.995.996 2.325.024.334 2.39.094 3.002-.403.602-.502.518 1.734-.076 2.34-.602.606.213 1.816.876 1.915.663.096 1.55 1.653 2.235 1.635.342-.01.807-.675 1.22-1.457V163.8l-.017-.003c-.53-.077-1.017-2.386-1.923-2.696m-22.382 54.016c.72-.12 1.275-.7 1.243-1.297-.032-.59-1.05-3.28-1.453-3.28-.407 0-1.177 1.976-1.665 1.784-.48-.2-.746 1.602-.63 2.287.105.688 1.79.63 2.505.506m-2.575-19.957c.245.71 1.153 1.173 2.02 1.035.863-.144 2.583-1.036 3.194-1.092.602-.065 1.274-3.11.896-3.768-.378-.662-3.236-.585-3.936-.627-.695-.035-2.837-.752-3.24-1.207-.402-.447-.716 1.766-1.364 2.053-.664.287.313.712.588.476.266-.24-.014 1.134-.314 1.607-.297.477 1.905.804 2.157 1.522m-63.773.055c-.448.413-.06 2.507.798 2.57.855.06 2.218-3.16 3.27-2.516 1.046.647 1.752.9 1.584.557-.182-.34-3.16-1.647-3.526-1.884-.372-.224-1.67.86-2.126 1.27m10.93 70.95c0 .352 1.86.304 2.17-.27.29-.568.14-1.033-.366-1.033-.494 0-1.804.94-1.804 1.3m-8.292-3.063c.89-.166.472 1.274.686 1.787.213.527 2.353.936 2.782 1.29.424.346 1.53-.657 2.385-.547.852.106-.28-2.96-1.716-2.872-1.43.094-2.57-1.3-2.904-1.467-.35-.157-2.003-1.162-2.485-1.55-.465-.38-4.112-.705-5.356-.705-1.242 0-2.607 1.268-2.796 1.675-.196.423 1.964.704 2.573.374.627-.322 3.516.365 4.11 1.062.594.692 1.82 1.125 2.72.953m-3.9 3.065c0 .353 1.88.135 2.33.148.454.007.442-.304-.03-.683-.474-.383-2.302.175-2.302.535m1.335-9.677c-.49-.196-.885.574-.885.936 0 .362.27.66.602.66.328 0 .77-1.397.283-1.595m3.938.3c-.16-.363-.967-.654-1.21-.654-.247 0-.41.627-.37 1.378.043.762 1.742-.365 1.58-.722m2.843 4.368c.755-.364.853-1.275.405-1.224-.457.044-1.29-1.312-1.785-1.502-.487-.196-.882.808-.882 1.25 0 .448.273.745.605.658.34-.084.886 1.17 1.657.816" fill="#fff"/><path d="M276.083 171.476c-.132-.133-.673.26-.43.498.113.16.64-.228.428-.5m14.328 42.688c-.107-.154-.658.255-.448.504.135.148.687-.25.448-.504" fill="#c1e2de"/><path d="M366.682 217.154H54.044h-.004c-4.488 0-8.18 3.693-8.18 8.18v190.514c0 4.487 3.694 8.178 8.18 8.178h312.642c4.532 0 8.205-3.67 8.205-8.178v-190.5c-.002-4.496-3.703-8.194-8.2-8.194h-.005" fill="#174f78"/><path fill="#103754" d="M66.23 236.866H354.52v167.018H66.23z"/><path d="M405.212 419.35H270.36c-.285 2.76-2.53 4.935-5.358 4.935H155.746c-2.834 0-5.08-2.17-5.365-4.934H15.528c-.08.67-.202 1.304-.202 1.974v5.905c0 9.78 7.946 17.742 17.738 17.742h354.623c9.795 0 17.73-7.962 17.73-17.743v-5.906c0-.67-.11-1.303-.205-1.973" fill="#fff"/><path d="M16.742 434.172c2.706 6.338 9 10.8 16.323 10.8h354.622c7.332 0 13.616-4.462 16.32-10.8H16.74z" fill="#c1e2de"/><path fill="#f3ac1d" d="M89.585 277.357h89.308v5.01H89.585z"/><path fill="#6bb8d6" d="M186.993 277.357h20.247v5.01h-20.247z"/><path fill="#de3f18" d="M89.585 258.086h59.61v5.008h-59.61z"/><path d="M142.444 296.636h187.64v5.01h-187.64v-5.01z" fill="#c1e2de"/><path fill="#f3ac1d" d="M89.585 296.636h43.41v5.01h-43.41z"/><path fill="#c1e2de" d="M108.695 315.906H260.22v5.01H108.696z"/><path fill="#de3f18" d="M268.455 315.906h25.978v5.01h-25.978z"/><path d="M108.695 335.18h29.066v5.01h-29.065v-5.01zm0 19.276h29.066v5.01h-29.065v-5.01z" fill="#f3ac1d"/><path d="M146.003 335.18h158.33v5.01h-158.33v-5.01zm0 19.276h82.875v5.01h-82.875v-5.01z" fill="#b1be46"/><path d="M235.063 354.456h82.87v5.01h-82.87v-5.01zm-89.92 19.275h109.8v5.01h-109.8v-5.01z" fill="#6bb8d6"/><path fill="#f3ac1d" d="M89.585 373.73h48.81v5.01h-48.81z"/><path fill="#de3f18" d="M265.035 373.73h15.353v5.01h-15.353z"/><path d="M101.408 335.783l19.873-16.235 19.87-16.242-24.818-6.527-24.818-6.533 9.403 16.24-18.01 3.91 2.31 10.62 18.005-3.915-1.816 18.683.002-.002z" fill="#c1e2de"/><path d="M121.282 319.548l19.87-16.242-.826-.214-56.344 12.234 1.235 5.687 18.006-3.91-1.817 18.682 19.875-16.235.002-.002zM60.107 58.988h-.003c-.768 0-1.4-.632-1.4-1.4 0-.675.487-1.258 1.15-1.38 3.6-.665 6.942-1.06 9.928-1.175.77-.063 1.426.57 1.454 1.344a1.407 1.407 0 0 1-1.345 1.453c-2.852.112-6.057.49-9.527 1.135-.084.015-.17.023-.255.022m27.523 4.948a1.396 1.396 0 0 1-1.134-.577c-1.61-2.22-4.07-3.792-7.306-4.676a1.404 1.404 0 0 1-1.032-1.352 1.407 1.407 0 0 1 1.77-1.352c3.866 1.056 6.84 2.984 8.835 5.732.174.24.268.528.268.824 0 .768-.63 1.4-1.4 1.4M43.025 67.42a1.407 1.407 0 0 1-1.398-1.4c0-.27.077-.532.222-.757 1.723-2.697 4.508-4.864 8.267-6.44a1.39 1.39 0 0 1 .558-.117c.768 0 1.4.632 1.4 1.4 0 .57-.346 1.085-.874 1.3-3.227 1.352-5.58 3.158-6.996 5.368-.258.4-.703.645-1.18.644M89.31 82.89h-.002a1.407 1.407 0 0 1-1.366-1.712c.72-3.15 1.084-6.026 1.084-8.544 0-.274-.004-.547-.014-.813v-.05c0-.75.604-1.372 1.353-1.394.782-.073 1.422.58 1.447 1.353.014.298.017.598.017.905 0 2.727-.39 5.813-1.156 9.168a1.406 1.406 0 0 1-1.363 1.09m-44.394 3.056a1.4 1.4 0 0 1-1.215-.704c-1.93-3.362-3.165-6.58-3.67-9.562a1.403 1.403 0 0 1 1.143-1.615 1.41 1.41 0 0 1 1.618 1.145c.452 2.654 1.575 5.56 3.34 8.637a1.4 1.4 0 0 1-1.214 2.1m12.51 15.027c-.352 0-.69-.132-.948-.37a81.18 81.18 0 0 1-6.938-7.176 1.398 1.398 0 0 1-.334-.907c0-.77.633-1.402 1.403-1.402.41 0 .802.182 1.07.496a77.76 77.76 0 0 0 6.694 6.926c.288.266.453.64.453 1.03 0 .77-.632 1.4-1.4 1.402m25.28.36c-.77 0-1.4-.633-1.4-1.4 0-.202.043-.4.127-.583a127.3 127.3 0 0 0 3.72-8.96c.196-.56.727-.937 1.32-.937.77 0 1.4.632 1.4 1.4 0 .172-.03.342-.092.502-1.15 3.1-2.417 6.157-3.8 9.16a1.4 1.4 0 0 1-1.275.818m143.917 9.913c-.063 0-.126-.004-.19-.014-3.19-.423-6.398-.68-9.614-.766a1.41 1.41 0 0 1-1.362-1.44c.024-.775.654-1.364 1.443-1.362 3.387.098 6.72.365 9.91.792a1.405 1.405 0 0 1 1.223 1.39c0 .768-.633 1.4-1.4 1.4h-.01m-29.327.182a1.407 1.407 0 0 1-1.39-1.4c0-.707.534-1.308 1.235-1.39 3.275-.375 6.56-.654 9.85-.836.024-.002.05-.002.074-.002.77 0 1.4.632 1.4 1.4 0 .742-.586 1.36-1.325 1.4a164.73 164.73 0 0 0-9.688.824 2.035 2.035 0 0 1-.156.007m-124.18 1.294c-.256 0-.507-.07-.726-.203a105.508 105.508 0 0 1-8.24-5.567c-.38-.26-.61-.694-.61-1.156 0-.77.633-1.4 1.402-1.4.323 0 .636.11.886.315a103.27 103.27 0 0 0 8.018 5.415c.415.254.67.708.67 1.195 0 .768-.633 1.4-1.4 1.4m104.784 1.58a1.406 1.406 0 0 1-1.394-1.4c0-.68.492-1.264 1.16-1.38 3.228-.56 6.463-1.085 9.704-1.58a1.423 1.423 0 0 1 1.594 1.178 1.408 1.408 0 0 1-1.174 1.593c-2.855.43-6.01.943-9.652 1.57a1.71 1.71 0 0 1-.238.017m67.662 1.793c-.168 0-.336-.032-.504-.095a82.213 82.213 0 0 0-9.168-2.934 1.4 1.4 0 1 1 .696-2.713 85.09 85.09 0 0 1 9.48 3.033c.54.207.9.73.9 1.308 0 .77-.633 1.4-1.4 1.4h-.005m-86.965 1.626c-.668 0-1.26-.48-1.38-1.16a1.41 1.41 0 0 1 1.14-1.625c2.912-.51 5.753-1.017 8.53-1.513l1.12-.2a1.407 1.407 0 0 1 1.6 1.386c0 .66-.465 1.234-1.11 1.37l-1.117.2c-2.778.497-5.622 1.005-8.54 1.518-.08.014-.162.02-.243.02m-84.92 1.035h-.002c-.766 0-1.398-.632-1.398-1.4a1.4 1.4 0 0 1 .187-.697 258.633 258.633 0 0 0 4.684-8.563c.24-.462.72-.754 1.243-.754.767 0 1.4.633 1.4 1.4 0 .227-.055.45-.16.65a260.92 260.92 0 0 1-4.738 8.655 1.4 1.4 0 0 1-1.218.707m65.573 2.146h-.01c-.768 0-1.4-.632-1.4-1.4 0-.695.515-1.29 1.203-1.387 3.308-.496 6.527-1.01 9.662-1.527a1.408 1.408 0 0 1 1.65 1.378c0 .69-.51 1.283-1.193 1.385-3.15.522-6.382 1.036-9.704 1.535-.07.008-.143.014-.21.014m-48.437.228c-.154 0-.307-.024-.452-.074a85.056 85.056 0 0 1-9.227-3.786 1.403 1.403 0 0 1-.777-1.255 1.398 1.398 0 0 1 1.987-1.272 82.522 82.522 0 0 0 8.92 3.66c.565.195.947.73.947 1.327 0 .767-.63 1.4-1.398 1.4m28.996 2.323a1.407 1.407 0 0 1-1.39-1.4c0-.707.534-1.31 1.236-1.392 3.157-.35 6.422-.746 9.704-1.176a1.407 1.407 0 0 1 1.627 1.383c0 .716-.55 1.323-1.263 1.394-3.3.435-6.583.834-9.76 1.187a1.364 1.364 0 0 1-.156.007m-11.154.95c-2.732 0-5.627-.27-8.607-.804a1.405 1.405 0 0 1-1.156-1.38 1.408 1.408 0 0 1 1.647-1.38c3.312.593 6.457.837 9.463.737.72-.052 1.42.574 1.45 1.35a1.408 1.408 0 0 1-1.352 1.45c-.482.016-.964.025-1.447.027m154.34.57a1.39 1.39 0 0 1-.747-.217 108.06 108.06 0 0 0-8.39-4.805 1.402 1.402 0 0 1-.76-1.246 1.4 1.4 0 0 1 2.04-1.247 110.365 110.365 0 0 1 8.607 4.93 1.4 1.4 0 0 1 .65 1.182c0 .768-.63 1.4-1.4 1.4M63.454 135.506a1.407 1.407 0 0 1-1.398-1.4c0-.27.077-.532.222-.757a419.69 419.69 0 0 0 5.204-8.29c.255-.415.71-.67 1.196-.67a1.402 1.402 0 0 1 1.196 2.13 425.59 425.59 0 0 1-5.24 8.344c-.256.4-.702.644-1.18.644m215.306 1.068c-.328 0-.645-.116-.896-.327a166.12 166.12 0 0 0-7.632-6.012 1.402 1.402 0 0 1 1.667-2.255c2.647 1.962 5.234 4 7.76 6.116.32.266.504.66.504 1.076 0 .768-.63 1.4-1.4 1.4h-.002m14.45 13.232c-.37 0-.725-.146-.987-.406a258.978 258.978 0 0 0-7.045-6.738 1.4 1.4 0 0 1 1.894-2.06c2.338 2.148 4.734 4.44 7.122 6.81a1.4 1.4 0 0 1 .414.993c0 .77-.632 1.4-1.4 1.4m-240.702 2a1.403 1.403 0 0 1-1.146-2.203 556.124 556.124 0 0 0 5.533-8.072c.26-.4.702-.64 1.177-.64.768 0 1.4.632 1.4 1.4a1.4 1.4 0 0 1-.25.802 557.55 557.55 0 0 1-5.562 8.115c-.262.375-.69.6-1.15.6m254.192 12.223c-.397 0-.776-.167-1.04-.463a377.03 377.03 0 0 0-6.623-7.177 1.402 1.402 0 0 1-.383-.963c0-.77.634-1.402 1.403-1.402a1.4 1.4 0 0 1 1.018.44c2.253 2.38 4.474 4.79 6.666 7.227.232.257.36.592.36.938 0 .77-.63 1.4-1.4 1.4m-265.65 3.713h-.005c-.766 0-1.397-.63-1.397-1.397 0-.3.097-.595.277-.836a758.347 758.347 0 0 0 5.776-7.915c.26-.378.693-.605 1.153-.605.768 0 1.4.632 1.4 1.4 0 .304-.1.6-.28.842a725.643 725.643 0 0 1-5.797 7.94 1.4 1.4 0 0 1-1.126.57m278.458 11.13a1.4 1.4 0 0 1-1.078-.505 534.082 534.082 0 0 0-6.315-7.464 1.398 1.398 0 0 1-.34-.913 1.402 1.402 0 0 1 2.463-.914 573.654 573.654 0 0 1 6.346 7.5 1.41 1.41 0 0 1-.18 1.975c-.263.217-.58.322-.895.322m-290.19 4.6c-.77-.002-1.4-.634-1.4-1.402 0-.29.09-.575.26-.812a247.41 247.41 0 0 1 4.454-6.035l1.42-1.866a1.4 1.4 0 0 1 2.518.848c0 .306-.1.603-.286.847l-1.423 1.87a245.633 245.633 0 0 0-4.405 5.962c-.262.37-.687.59-1.14.59m-10.618 16.472c-.768 0-1.4-.633-1.4-1.4a1.4 1.4 0 0 1 .186-.696c1.637-2.858 3.35-5.67 5.14-8.437.258-.398.702-.64 1.177-.64.77 0 1.4.633 1.4 1.402 0 .27-.077.534-.223.76a179.222 179.222 0 0 0-5.06 8.307c-.25.436-.715.707-1.22.707m-8.534 17.63c-.767 0-1.4-.632-1.4-1.4 0-.175.034-.348.098-.51 1.212-3.076 2.545-6.1 3.996-9.07.24-.47.722-.764 1.247-.764.768 0 1.4.632 1.4 1.4 0 .204-.043.405-.13.59a124.246 124.246 0 0 0-3.907 8.866 1.4 1.4 0 0 1-1.303.888m-5.306 18.834h-.004a1.408 1.408 0 0 1-1.382-1.625 85.93 85.93 0 0 1 2.186-9.72 1.41 1.41 0 0 1 1.733-.96 1.404 1.404 0 0 1 .962 1.73 82.3 82.3 0 0 0-2.112 9.4 1.406 1.406 0 0 1-1.38 1.176m-.31 19.52a1.404 1.404 0 0 1-1.383-1.2 60.765 60.765 0 0 1-.61-9.995c.014-.773.668-1.373 1.43-1.373a1.407 1.407 0 0 1 1.372 1.4v.03c-.07 3.19.123 6.38.577 9.538a1.408 1.408 0 0 1-1.386 1.6m6.186 18.48a1.4 1.4 0 0 1-1.23-.726 56.298 56.298 0 0 1-4.027-9.195 1.407 1.407 0 0 1 1.344-1.795c.58 0 1.104.362 1.31.905a53.22 53.22 0 0 0 3.828 8.736c.113.206.172.437.172.672 0 .768-.63 1.4-1.4 1.4m12.044 15.353c-.358 0-.704-.135-.964-.38a69.176 69.176 0 0 1-6.763-7.36 1.403 1.403 0 0 1-.275-.835c0-.77.632-1.4 1.4-1.4a1.4 1.4 0 0 1 1.072.498 66.314 66.314 0 0 0 6.49 7.06c.28.264.44.633.44 1.018 0 .768-.633 1.4-1.4 1.4m15.726 11.64a1.38 1.38 0 0 1-.708-.19 96.414 96.414 0 0 1-8.315-5.46 1.402 1.402 0 0 1-.57-1.127 1.4 1.4 0 0 1 2.227-1.128 94.42 94.42 0 0 0 8.075 5.298c.428.25.693.712.693 1.21 0 .767-.633 1.4-1.4 1.4H38.5m17.682 8.432a1.41 1.41 0 0 1-.504-.092 130.868 130.868 0 0 1-9.105-3.9 1.402 1.402 0 0 1-.754-1.243c0-.77.63-1.4 1.4-1.4.19 0 .377.038.552.112a128.61 128.61 0 0 0 8.913 3.815c.535.21.888.73.888 1.305a1.41 1.41 0 0 1-1.392 1.404m18.722 5.842c-.113 0-.226-.014-.336-.042a167.886 167.886 0 0 1-9.535-2.647 1.405 1.405 0 0 1-.974-1.335c0-.768.632-1.4 1.4-1.4.138 0 .274.02.405.06 3.037.942 6.193 1.82 9.377 2.602.62.155 1.06.718 1.06 1.36 0 .764-.628 1.395-1.394 1.4m-2.51-135.688c-2.51.003-4.575 2.067-4.577 4.577.003 2.508 2.068 4.572 4.577 4.574 2.51-.003 4.574-2.066 4.577-4.575-.003-2.51-2.067-4.575-4.577-4.578m0 11.207c-3.635-.005-6.626-2.996-6.63-6.63.003-3.637 2.994-6.63 6.63-6.633 3.636.004 6.627 2.996 6.63 6.632-.004 3.634-2.993 6.624-6.628 6.63m-6.304 4.02c.407 0 .8.09 1.136.257l1.176.482c.963.324 1.737 1.4 1.737 2.478v2.748c0 .075.058.133.128.133h4.252a.14.14 0 0 0 .136-.134v-2.745c0-1.078.77-2.156 1.793-2.502l1.175-.49c.276-.138.667-.225 1.07-.225.725 0 1.436.28 1.908.754l1.945 1.94h.184l3.008-3.006v-.18l-1.943-1.948c-.765-.77-.978-2.078-.494-3.043l.484-1.178c.315-.96 1.39-1.737 2.477-1.737h2.75c.07 0 .13-.06.13-.13v-4.25c0-.07-.057-.13-.13-.133h-2.75c-1.086 0-2.163-.775-2.502-1.803l-.487-1.172c-.453-.9-.24-2.207.52-2.974l1.948-1.947h-.003v-.182l-3.006-3.01-.91-.726.728.725-1.947 1.947c-.736.734-2.1.962-3.043.496l-1.176-.488c-.953-.313-1.73-1.386-1.73-2.473v-2.75c0-.07-.065-.132-.135-.132h-4.25a.133.133 0 0 0-.126.132v2.75c0 1.087-.78 2.16-1.812 2.5l-1.17.49c-.334.155-.7.233-1.07.227-.725 0-1.435-.28-1.904-.756l-1.943-1.942v.003h-.187l-3.007 3.008v.182L61 176.367c.763.766.976 2.073.49 3.043l-.476 1.172c-.322.96-1.397 1.734-2.48 1.734H55.78c-.067 0-.13.063-.13.133v4.25c0 .07.063.13.13.13h2.753c1.08 0 2.157.774 2.5 1.8l.487 1.183c.454.897.243 2.204-.522 2.97l-1.947 1.947v.185l3.008 3.007.914.725-.73-.726 1.948-1.943c.465-.47 1.177-.754 1.905-.754m8.426 8.153h-4.25a2.187 2.187 0 0 1-2.183-2.188v-2.746c0-.202-.213-.493-.406-.557l-1.304-.537c-.234-.112-.613-.042-.732.08l-1.947 1.947c-.826.824-2.272.82-3.096-.004l-3.003-3.002a2.173 2.173 0 0 1-.64-1.548c0-.59.23-1.135.643-1.545l1.943-1.943c.137-.14.196-.496.107-.67l-.543-1.317c-.084-.245-.387-.462-.577-.462h-2.753a2.188 2.188 0 0 1-2.185-2.185v-4.25a2.19 2.19 0 0 1 2.185-2.188h2.753c.196 0 .49-.21.553-.395l.532-1.306c.122-.246.063-.603-.075-.743l-1.943-1.944a2.17 2.17 0 0 1-.64-1.545c0-.59.23-1.135.643-1.547l3.004-3.005c.818-.82 2.27-.824 3.092 0l1.947 1.947c.12.122.602.14.665.108l1.31-.546c.256-.084.47-.378.47-.575v-2.75c0-1.205.98-2.186 2.182-2.186h4.25c1.21 0 2.192.98 2.192 2.186v2.75c0 .196.207.49.392.55l1.31.542c.374.178.627.028.735-.08l1.946-1.947c.827-.824 2.277-.822 3.093.006l3.003 3.007c.41.406.64.957.64 1.543 0 .59-.23 1.138-.645 1.548l-1.94 1.942c-.137.14-.196.498-.108.672l.544 1.31c.087.253.38.46.577.46h2.752a2.19 2.19 0 0 1 2.185 2.19v4.25c0 1.205-.98 2.185-2.185 2.185h-2.75c-.197 0-.49.21-.55.397l-.542 1.314c-.12.24-.06.6.08.742l1.94 1.94c.41.406.64.957.64 1.544 0 .588-.23 1.14-.644 1.55l-3.005 3.005c-.807.82-2.26.823-3.086 0l-1.948-1.942c-.112-.112-.5-.196-.675-.112l-1.3.542c-.254.087-.464.378-.464.58v2.748c0 1.205-.98 2.185-2.19 2.185" fill="#fff"/></g></svg>