<svg viewBox="0 0 72 72" xmlns="http://www.w3.org/2000/svg" fill-rule="evenodd" clip-rule="evenodd" stroke-linejoin="round" stroke-miterlimit="1.414"><g fill-rule="nonzero"><path d="M71 36c0 19.33-15.67 35-35 35S1 55.33 1 36 16.67 1 36 1s35 15.67 35 35" fill="#ffca5c"/><path d="M70.998 36.074l-11.642-11.64-8.793 8.792-8.667-8.668-7.904 7.907-4.264-4.264-17.204 17.204 25.53 25.53C56.405 69.87 70.96 54.678 71 36.073" fill="#e0ae4b"/><path fill="#515151" d="M12.36 24.398h29.535V45.43H12.36z"/><path fill="#fff" d="M14.902 26.32h24.452v17.19H14.902z"/><path d="M21.113 53.55c0-1.972 2.693-3.57 6.014-3.57 3.322 0 6.014 1.598 6.014 3.57H21.114z" fill="#515151"/><path fill="#6f6f6f" d="M25.07 44.894h4.115v6.414H25.07z"/><path d="M32.73 35.184c-.137 0-.273.01-.406.03a5.318 5.318 0 1 0-10.62-.547 3.03 3.03 0 1 0-.644 5.993h11.67a2.74 2.74 0 0 0 0-5.476" fill="#409cd0"/><path fill="#fffdfd" d="M45.47 24.32h14.17V53.55H45.47z"/><path d="M47.747 47.855h9.616v1.52h-9.616zM47.747 44.44h9.616v1.52h-9.616z"/><path d="M54.453 30.143a1.897 1.897 0 1 1-3.795 0 1.897 1.897 0 0 1 3.795 0" fill="#eb5552"/></g></svg>