<svg viewBox="0 0 72 72" xmlns="http://www.w3.org/2000/svg" fill-rule="evenodd" clip-rule="evenodd" stroke-linejoin="round" stroke-miterlimit="1.414"><g fill-rule="nonzero"><path d="M71 36c0 19.33-15.67 35-35 35S1 55.33 1 36 16.67 1 36 1s35 15.67 35 35" fill="#ec5e55"/><path d="M67.243 51.77L37.465 21.99l-1.392 1.392-6.326-6.325L14.513 32.29l5.882 5.884-1.58 1.58 29.144 29.147c8.397-3.053 15.288-9.234 19.283-17.13" fill="#dd5959"/><path d="M27.1 34.217a4.443 4.443 0 1 1 .002-8.885 4.443 4.443 0 0 1 0 8.885m12.817-1.82v-5.244h-3.867a9.327 9.327 0 0 0-.84-1.784l2.806-2.805-3.71-3.708-2.976 2.975a9.134 9.134 0 0 0-1.61-.607v-4.27H24.48v4.352a9.392 9.392 0 0 0-1.514.624l-3.075-3.073-3.706 3.708 2.99 2.99a9.147 9.147 0 0 0-.732 1.598h-4.158v5.243h3.9c.16.665.39 1.3.685 1.903l-2.686 2.684 3.707 3.708 2.516-2.514c.643.393 1.34.71 2.074.937v3.476h5.243V39.2a9.215 9.215 0 0 0 2.18-.914l2.408 2.407 3.71-3.706-2.493-2.493a9.21 9.21 0 0 0 .782-2.094h3.61z" fill="#fff"/><path d="M44.42 47.868a3.458 3.458 0 1 1 2.794-6.328 3.458 3.458 0 0 1-2.793 6.328m9.7 2.734l1.65-3.734-2.753-1.216a7.21 7.21 0 0 0-.037-1.534l2.88-1.113-1.475-3.808-3.056 1.184a7.09 7.09 0 0 0-.957-.94l1.342-3.038-3.733-1.65-1.37 3.098a7.327 7.327 0 0 0-1.272-.03l-1.223-3.157-3.805 1.475 1.187 3.068c-.367.267-.71.57-1.024.908l-2.96-1.308-1.65 3.734 2.78 1.227a7.186 7.186 0 0 0-.114 1.57l-2.756 1.068 1.475 3.807 2.58-1c.336.482.732.926 1.184 1.32l-1.094 2.475 3.734 1.648 1.067-2.416a7.192 7.192 0 0 0 1.842.035l.956 2.47 3.806-1.474-.99-2.557a7.25 7.25 0 0 0 1.216-1.246l2.57 1.135z" fill="#7ec5d8"/><path d="M35.214 25.37l2.805-2.805-3.71-3.708-2.976 2.976a9.277 9.277 0 0 0-1.61-.608v-4.268H27.4v8.39a4.438 4.438 0 0 1 0 8.855v8.39h2.323V39.2a9.25 9.25 0 0 0 2.18-.915l2.408 2.406 3.71-3.706-2.494-2.492c.34-.657.606-1.358.783-2.096h3.61v-5.243h-3.867a9.318 9.318 0 0 0-.84-1.783" fill="#e8dede"/><path d="M54.385 39.197L51.33 40.38a7.09 7.09 0 0 0-.957-.94l1.342-3.038-3.733-1.65-1.368 3.098a7.172 7.172 0 0 0-.827-.044v3.443a3.456 3.456 0 1 1 0 6.913v4.15c.26 0 .518-.01.775-.038l.956 2.47 3.806-1.474-.99-2.557a7.25 7.25 0 0 0 1.216-1.246l2.57 1.135 1.65-3.734-2.753-1.216c.042-.515.03-1.03-.037-1.534l2.88-1.113-1.475-3.808z" fill="#69aeb9"/></g></svg>